<?xml version="1.0" encoding="UTF-8"?>
<svg viewBox="0 0 744.09447 1052.362179" xmlns="http://www.w3.org/2000/svg">
 <defs>
  <linearGradient id="a" x1="166.49" x2="452.21" y1="663.06" y2="238.99" gradientUnits="userSpaceOnUse">
   <stop stop-color="#ebea00" offset="0"/>
   <stop stop-color="#ebeaba" offset=".5"/>
   <stop stop-color="#ebea00" offset="1"/>
  </linearGradient>
 </defs>
 <g transform="translate(43.406 43.406)" fill="#929894" fill-rule="evenodd">
  <path d="m318.06 239c-113.72 1.4682-205.53 95.901-205.53 212.03 0 117.04 93.297 212.03 208.25 212.03 50.986 0 97.692-18.678 133.91-49.688v-52.406c-31.68 40.636-80.497 66.688-135.25 66.688-95.422 1e-5 -172.88-79.137-172.88-176.66-1e-5 -96.757 76.23-175.43 170.62-176.66 0.74327-0.00963 1.5045 0 2.25 0 54.996 0 103.99 26.273 135.66 67.219l12.031-28.719 3.6875-8.8125c-37.888-40.083-91.117-65.031-150.03-65.031-0.89807 0-1.8234-0.01156-2.7188 0z"/>
  <path transform="matrix(1 -.001503 -.36933 .9293 0 0)" d="m235.58 503.15h351.01v39.278h-351.01z"/>
  <path transform="matrix(1 -.001503 -.36933 .9293 0 0)" d="m208.33 427.28h380.38v39.399h-380.38z"/>
 </g>
 <g transform="translate(38.238 48.573)" fill="url(#a)" fill-rule="evenodd">
  <path d="m318.06 239c-113.72 1.4682-205.53 95.901-205.53 212.03 0 117.04 93.297 212.03 208.25 212.03 50.986 0 97.692-18.678 133.91-49.688v-52.406c-31.68 40.636-80.497 66.688-135.25 66.688-95.422 1e-5 -172.88-79.137-172.88-176.66-1e-5 -96.757 76.23-175.43 170.62-176.66 0.74327-0.00963 1.5045 0 2.25 0 54.996 0 103.99 26.273 135.66 67.219l12.031-28.719 3.6875-8.8125c-37.888-40.083-91.117-65.031-150.03-65.031-0.89807 0-1.8234-0.01156-2.7188 0z"/>
  <path transform="matrix(1 -.001503 -.36933 .9293 0 0)" d="m235.58 503.15h351.01v39.278h-351.01z"/>
  <path transform="matrix(1 -.001503 -.36933 .9293 0 0)" d="m208.33 427.28h380.38v39.399h-380.38z"/>
 </g>
</svg>
