<?xml version="1.0" encoding="UTF-8" standalone="no"?>
<svg
   xmlns:dc="http://purl.org/dc/elements/1.1/"
   xmlns:cc="http://creativecommons.org/ns#"
   xmlns:rdf="http://www.w3.org/1999/02/22-rdf-syntax-ns#"
   xmlns:svg="http://www.w3.org/2000/svg"
   xmlns="http://www.w3.org/2000/svg"
   viewBox="0 0 396 233.33333"
   height="233.33333"
   width="396"
   xml:space="preserve"
   id="svg2"
   version="1.1"><metadata
     id="metadata8"><rdf:RDF><cc:Work
         rdf:about=""><dc:format>image/svg+xml</dc:format><dc:type
           rdf:resource="http://purl.org/dc/dcmitype/StillImage" /></cc:Work></rdf:RDF></metadata><defs
     id="defs6"><clipPath
       id="clipPath22"
       clipPathUnits="userSpaceOnUse"><path
         id="path20"
         d="m 1024.9,1345.04 h 1024.24 v 404.957 H 1024.9 Z" /></clipPath><clipPath
       id="clipPath32"
       clipPathUnits="userSpaceOnUse"><path
         id="path30"
         d="m 1024.91,929.586 h 1454.52 v 377.961 H 1024.91 Z" /></clipPath><clipPath
       id="clipPath42"
       clipPathUnits="userSpaceOnUse"><path
         id="path40"
         d="M 1024,487 V 893 H 2970 V 487 Z" /></clipPath><clipPath
       id="clipPath52"
       clipPathUnits="userSpaceOnUse"><path
         id="path50"
         d="m 285.625,0 h 2398.76 V 335.59 H 285.625 Z" /></clipPath></defs><g
     transform="matrix(1.3333333,0,0,-1.3333333,0,233.33333)"
     id="g10"><g
       transform="scale(0.1)"
       id="g12"><path
         id="path14"
         style="fill:#ffffff;fill-opacity:1;fill-rule:nonzero;stroke:none"
         d="M 217.984,1623.89 0,1497.84 V 991.902 L 218.043,865.793 C 337.953,796.5 436.375,739.746 436.785,739.746 c 0.406,0 98.887,56.754 218.738,126.047 L 873.566,991.844 V 1497.84 L 655.582,1623.95 C 535.672,1693.25 437.191,1750 436.727,1750 c -0.469,0 -98.891,-56.75 -218.743,-126.11 z m 206.743,4.15 c -0.289,-0.24 -70.059,-40.6 -155.086,-89.77 -85.028,-49.18 -155.668,-90 -156.95,-90.76 l -2.332,-1.35 -37.0973,22 c -20.3828,12.07 -37.039,22.28 -37.039,22.57 0.0586,0.35 87.4723,51.15 194.3403,112.92 l 194.281,112.35 0.176,-43.81 c 0.058,-24.03 -0.059,-43.92 -0.293,-44.15 z m 219.847,-25.32 c 106.403,-61.48 193.469,-111.99 193.469,-112.22 -0.059,-0.41 -71.926,-44.57 -73.031,-44.86 -0.352,-0.06 -71.692,40.95 -158.465,91.11 l -157.824,91.29 -0.176,44.15 -0.117,44.1 1.281,-0.82 c 0.758,-0.47 88.406,-51.21 194.863,-112.75 z M 424.727,1482.8 c -0.93,-0.88 -189.739,-109.78 -190.321,-109.78 -0.523,0 -99.179,58.21 -99.933,58.97 -0.235,0.24 65.05,38.21 145.011,84.46 l 145.36,84 0.176,-58.63 c 0.058,-32.25 -0.059,-58.79 -0.293,-59.02 z m 170.929,32.72 c 113.332,-65.5 145.535,-84.4 144.953,-84.93 -0.347,-0.41 -22.421,-14 -48.976,-30.33 -44.61,-27.35 -48.34,-29.57 -49.793,-28.99 -0.817,0.35 -44.613,25.55 -97.317,56.05 l -95.8,55.48 -0.176,58.97 c -0.117,49.23 0,58.91 0.641,58.5 0.464,-0.23 66.332,-38.38 146.468,-84.75 z M 62.2578,1446.98 99.5859,1424.88 99.4688,1242.6 99.2969,1060.32 65.2266,1041.3 c -18.7539,-10.44 -35.8164,-19.94 -38.0313,-21.17 l -3.8984,-2.22 V 1244 c 0,190.38 0.1133,226.02 0.8125,225.61 0.4101,-0.23 17.5898,-10.44 38.1484,-22.63 z M 850.273,1243.71 v -225.8 l -1.574,0.88 c -0.933,0.53 -17.996,10.03 -38.031,21.23 l -36.398,20.3 -0.114,181.34 -0.117,181.41 37.68,23.15 c 20.73,12.72 37.855,23.16 38.144,23.16 0.235,0.06 0.41,-101.55 0.41,-225.67 z m -425.136,158.77 v -52.91 l -38.09,-22.05 c -20.906,-12.07 -38.32,-21.98 -38.727,-21.98 -0.582,0 -88.988,52.14 -89.804,52.96 -0.289,0.29 164.929,96.41 166.504,96.88 0.058,0.06 0.117,-23.74 0.117,-52.9 z m 109.484,3.09 c 45.953,-26.54 83.863,-48.53 84.274,-48.94 0.523,-0.47 -9.028,-6.59 -39.02,-25.02 -21.84,-13.42 -41.059,-25.2 -42.746,-26.25 l -3.031,-1.87 1.691,-2.74 1.688,-2.68 -9.727,5.66 c -5.355,3.09 -25.391,14.64 -44.551,25.72 l -34.769,20.12 v 105.98 l 1.34,-0.81 c 0.699,-0.47 38.902,-22.57 84.851,-49.17 z m -364.043,-22.75 44.32,-26.25 -0.175,-116.02 -0.118,-116.01 -45.425,-25.25 c -24.926,-13.95 -45.426,-25.32 -45.539,-25.32 -0.118,0 -0.176,75.71 -0.176,168.28 v 168.34 l 1.398,-0.76 c 0.754,-0.41 21.313,-12.54 45.715,-27.01 z m 579.406,-225.5 -0.171,-83.35 -45.426,25.32 -45.426,25.31 -0.176,113.74 -0.117,113.74 45.543,28 45.602,28 0.171,-83.7 c 0.059,-46.02 0.059,-121.21 0,-167.06 z m -463.222,156.67 43.386,-25.66 0.059,-49.64 v -49.7 l -45.25,-25.19 c -24.926,-13.89 -45.484,-25.38 -45.715,-25.5 -0.293,-0.11 -0.469,45.74 -0.469,101.91 v 102.13 l 2.274,-1.34 c 1.223,-0.76 21.781,-12.89 45.715,-27.01 z m 348.031,-76.47 v -99.5 l -2.445,1.45 c -1.399,0.76 -21.957,12.25 -45.719,25.49 l -43.27,24.03 v 99.34 l 1.512,-2.45 c 0.817,-1.4 1.574,-2.51 1.692,-2.51 0.117,0 19.859,12.08 43.792,26.77 23.938,14.76 43.739,26.83 44.028,26.83 0.234,0.06 0.41,-44.74 0.41,-99.45 z m -156.895,67.49 41.293,-23.92 0.172,-48 0.117,-48 -40.882,-23.63 c -22.481,-13 -41.289,-23.62 -41.813,-23.62 -0.527,0 -19.336,10.62 -41.816,23.62 l -40.883,23.63 0.117,48 0.172,48 41.059,23.8 c 22.597,13.13 41.058,23.86 41.117,23.92 0.058,0.06 18.637,-10.68 41.347,-23.8 z M 627.57,1114.68 c 0.235,-0.29 -178.09,-103.71 -178.847,-103.71 -0.176,0 -0.235,23.8 -0.176,52.85 l 0.176,52.85 43.039,24.85 43.093,24.9 46.184,-25.72 c 25.391,-14.12 46.356,-25.84 46.531,-26.02 z m -245.531,26.72 42.805,-24.73 0.176,-52.85 c 0.058,-29.05 0,-52.85 -0.176,-52.85 -0.176,0 -23.934,13.66 -52.879,30.39 -28.887,16.75 -69.129,39.96 -89.395,51.68 -20.265,11.73 -36.75,21.47 -36.574,21.59 0.641,0.64 92.133,51.5 92.656,51.5 0.352,0 19.86,-11.14 43.387,-24.73 z m -59.051,-99.22 c 55.383,-31.97 101.039,-58.504 101.45,-58.852 0.523,-0.527 0.699,-10.5 0.582,-47.363 l -0.176,-46.664 -142.797,82.535 c -78.504,45.434 -142.918,82.714 -143.035,82.884 -0.465,0.47 81.359,45.96 82.351,45.79 0.524,-0.06 46.239,-26.31 101.625,-58.33 z m 371.09,35.58 c 22.422,-12.48 40.649,-22.92 40.418,-23.15 -0.234,-0.18 -63.828,-37.04 -141.344,-81.84 -77.515,-44.797 -141.808,-82.012 -142.859,-82.653 l -1.863,-1.168 0.117,47.188 0.176,47.133 101.625,58.73 c 55.906,32.38 101.914,58.74 102.265,58.68 0.348,-0.11 18.985,-10.38 41.465,-22.92 z M 269.641,951.539 424.844,861.77 425.02,817.613 c 0.117,-36.863 0,-44.035 -0.641,-43.629 -0.465,0.235 -87.707,50.746 -193.934,112.168 C 124.223,947.57 37.2734,997.969 37.2734,998.141 c 0,0.293 76.2896,43.049 76.8716,43.109 0.175,0 70.121,-40.37 155.496,-89.711 z m 528.218,68.361 c 21.137,-11.78 38.434,-21.584 38.434,-21.759 0,-0.172 -284.258,-164.836 -385.066,-222.989 l -2.797,-1.574 0.117,44.035 0.176,44.098 155.203,89.769 c 85.375,49.4 155.262,89.77 155.32,89.82 0.117,0 17.473,-9.62 38.613,-21.4" /><g
         id="g16"><g
           clip-path="url(#clipPath22)"
           id="g18"><path
             id="path24"
             style="fill:#f27316;fill-opacity:1;fill-rule:nonzero;stroke:none"
             d="m 1264.75,1356.37 v 0 l -56.61,105.29 -56.6,-105.29 v 0 c -3.59,-7.55 -9.88,-11.33 -18.87,-11.33 v 0 0 c -10.08,0 -16.92,4.68 -20.51,14.03 v 0 l -85.66,226.77 v 0 c -2.2,5.4 -2.12,10.8 0.22,16.2 v 0 0 c 2.35,5.4 6.39,9.17 12.13,11.32 v 0 0 c 5.39,2.2 10.78,2.13 16.17,-0.22 v 0 0 c 5.4,-2.35 9.16,-6.4 11.31,-12.15 v 0 l 69.56,-182.53 53.39,98.84 v 0 c 3.59,7.55 9.88,11.33 18.86,11.33 v 0 0 c 3.95,0 7.54,-0.91 10.79,-2.7 v 0 0 c 3.24,-1.8 5.39,-3.78 6.44,-5.93 v 0 l 1.64,-2.7 53.39,-98.84 69.56,182.53 v 0 c 1.79,5.75 5.46,9.8 11,12.15 v 0 0 c 5.59,2.35 11.09,2.42 16.48,0.22 v 0 0 c 5.74,-2.15 9.78,-5.92 12.13,-11.32 v 0 0 c 2.34,-5.4 2.42,-10.8 0.22,-16.2 v 0 l -85.66,-226.77 v 0 c -3.59,-9.35 -10.43,-14.03 -20.51,-14.03 v 0 0 c -8.99,0 -15.28,3.78 -18.87,11.33 z m 433.98,102.06 v 0 h -202.17 v 0 c 5.05,-20.5 15.73,-37.32 32.05,-50.47 v 0 0 c 16.37,-13.15 35.34,-19.72 56.91,-19.72 v 0 0 c 25.15,0 46.72,9 64.69,26.99 v 0 0 c 4.29,3.95 9.41,5.93 15.34,5.93 v 0 0 c 5.95,0 11.06,-1.98 15.36,-5.93 v 0 0 c 3.99,-4.29 5.98,-9.42 5.98,-15.37 v 0 0 c 0,-5.95 -1.99,-11.07 -5.98,-15.37 v 0 0 c -26.96,-26.3 -58.76,-39.45 -95.39,-39.45 v 0 0 c -37.04,0 -68.77,13.15 -95.17,39.45 v 0 0 c -26.41,26.24 -39.61,58.09 -39.61,95.54 v 0 0 c 0,37.45 13.2,69.29 39.61,95.54 v 0 0 c 26.4,26.3 58.13,39.45 95.17,39.45 v 0 0 c 37.03,0 68.75,-13.15 95.16,-39.45 v 0 0 c 26.41,-26.25 39.61,-58.09 39.61,-95.54 v 0 0 c 0,-5.75 -2.07,-10.8 -6.22,-15.15 v 0 0 c -4.14,-4.3 -9.25,-6.45 -15.34,-6.45 z m -202.17,43.2 v 0 h 177.9 v 0 c -5.03,20.5 -15.72,37.32 -32.04,50.47 v 0 0 c -16.37,13.15 -35.34,19.72 -56.9,19.72 v 0 0 c -21.57,0 -40.54,-6.57 -56.91,-19.72 v 0 0 c -16.32,-13.15 -27,-29.97 -32.05,-50.47 z m 283.03,-134.99 v 0 361.76 c 0,5.75 2.07,10.8 6.21,15.15 v 0 0 c 4.15,4.3 9.27,6.45 15.36,6.45 v 0 0 c 6.09,0 11.2,-2.15 15.34,-6.45 v 0 0 c 4.15,-4.35 6.22,-9.4 6.22,-15.15 v 0 -149.53 0 c 25.85,24.09 56.41,36.15 91.65,36.15 v 0 0 c 37.03,0 68.76,-13.15 95.16,-39.45 v 0 0 c 26.41,-26.25 39.61,-58.09 39.61,-95.54 v 0 0 c 0,-37.45 -13.2,-69.3 -39.61,-95.54 v 0 0 c -26.4,-26.3 -58.13,-39.45 -95.16,-39.45 v 0 0 c -35.24,0 -65.8,12.05 -91.65,36.15 v 0 -14.55 0 c 0,-5.75 -2.07,-10.8 -6.22,-15.15 v 0 0 c -4.14,-4.3 -9.25,-6.45 -15.34,-6.45 v 0 0 c -6.09,0 -11.21,2.15 -15.36,6.45 v 0 0 c -4.14,4.35 -6.21,9.4 -6.21,15.15 z m 69.79,48.59 v 0 0 c 17.82,-17.99 39.48,-26.99 64.99,-26.99 v 0 0 c 25.5,0 47.17,9 64.99,26.99 v 0 0 c 17.77,18 26.65,39.6 26.65,64.8 v 0 0 c 0,25.2 -8.88,46.79 -26.65,64.79 v 0 0 c -17.82,18 -39.49,27 -64.99,27 v 0 0 c -25.51,0 -47.17,-9 -64.99,-27 v 0 0 c -17.77,-18 -26.66,-39.59 -26.66,-64.79 v 0 0 c 0,-25.2 8.89,-46.8 26.66,-64.8" /></g></g><g
         id="g26"><g
           clip-path="url(#clipPath32)"
           id="g28"><path
             id="path34"
             style="fill:#f27316;fill-opacity:1;fill-rule:nonzero;stroke:none"
             d="m 1162.38,929.586 v 0 h -115.91 v 0 c -6.09,0 -11.2,2.152 -15.35,6.449 v 0 0 c -4.14,4.352 -6.21,9.403 -6.21,15.149 v 0 0 c 0,5.75 2.07,10.8 6.21,15.148 v 0 0 c 4.15,4.301 9.26,6.449 15.35,6.449 v 0 h 115.91 v 0 c 9.68,0 17.94,3.426 24.78,10.278 v 0 0 c 6.84,6.847 10.26,15.121 10.26,24.821 v 0 0 c 0,9.7 -3.42,17.97 -10.26,24.82 v 0 0 c -6.84,6.85 -15.1,10.28 -24.78,10.28 v 0 h -59.3 v 0 c -21.57,0 -39.99,7.65 -55.26,22.94 v 0 0 c -15.28,15.3 -22.91,33.75 -22.91,55.35 v 0 0 c 0,21.59 7.63,40.04 22.91,55.34 v 0 0 c 15.27,15.3 33.69,22.95 55.26,22.95 v 0 h 84.08 v 0 c 5.74,0 10.78,-2.15 15.13,-6.45 v 0 0 c 4.29,-4.35 6.44,-9.4 6.44,-15.15 v 0 0 c 0,-5.75 -2.15,-10.8 -6.44,-15.15 v 0 0 c -4.35,-4.3 -9.39,-6.45 -15.13,-6.45 v 0 h -84.08 v 0 c -9.69,0 -17.95,-3.42 -24.79,-10.27 v 0 0 c -6.84,-6.85 -10.25,-15.13 -10.25,-24.82 v 0 0 c 0,-9.7 3.41,-17.98 10.25,-24.82 v 0 0 c 6.84,-6.86 15.1,-10.28 24.79,-10.28 v 0 h 59.3 v 0 c 21.56,0 39.98,-7.65 55.26,-22.95 v 0 0 c 15.27,-15.29 22.91,-33.74 22.91,-55.34 v 0 0 c 0,-21.599 -7.64,-40.048 -22.91,-55.345 v 0 0 c -15.28,-15.297 -33.7,-22.949 -55.26,-22.949 z M 1688,951.184 v 0 129.586 c 0,20.9 -7.36,38.72 -22.09,53.47 v 0 0 c -14.72,14.75 -32.52,22.12 -53.38,22.12 v 0 0 c -20.87,0 -38.66,-7.37 -53.39,-22.12 v 0 0 c -14.73,-14.75 -22.09,-32.57 -22.09,-53.47 v 0 -129.586 0 c 0,-5.746 -2.07,-10.797 -6.21,-15.149 v 0 0 c -4.14,-4.297 -9.26,-6.449 -15.35,-6.449 v 0 0 c -6.09,0 -11.21,2.152 -15.35,6.449 v 0 0 c -4.14,4.352 -6.22,9.403 -6.22,15.149 v 0 129.586 0 c 0,20.9 -7.36,38.72 -22.08,53.47 v 0 0 c -14.73,14.75 -32.52,22.12 -53.39,22.12 v 0 0 c -20.86,0 -38.66,-7.37 -53.39,-22.12 v 0 0 c -14.72,-14.75 -22.08,-32.57 -22.08,-53.47 v 0 -129.586 0 c 0,-5.746 -2.08,-10.797 -6.22,-15.149 v 0 0 c -4.14,-4.297 -9.26,-6.449 -15.35,-6.449 v 0 0 c -6.09,0 -11.2,2.152 -15.35,6.449 v 0 0 c -4.14,4.352 -6.21,9.403 -6.21,15.149 v 0 226.776 0 c 0,5.75 2.07,10.8 6.21,15.15 v 0 0 c 4.15,4.3 9.26,6.45 15.35,6.45 v 0 0 c 6.09,0 11.21,-2.15 15.35,-6.45 v 0 0 c 4.14,-4.35 6.22,-9.4 6.22,-15.15 v 0 -5.4 0 c 21.91,18 47.07,27 75.47,27 v 0 0 c 19.76,0 38.09,-4.6 54.96,-13.8 v 0 0 c 16.92,-9.15 30.95,-21.47 42.08,-36.97 v 0 0 c 11.13,15.5 25.15,27.82 42.08,36.97 v 0 0 c 16.87,9.2 35.19,13.8 54.96,13.8 v 0 0 c 32.69,0 60.65,-11.6 83.86,-34.8 v 0 0 c 23.16,-23.24 34.74,-51.24 34.74,-83.99 v 0 -129.586 0 c 0,-5.746 -2.08,-10.797 -6.22,-15.149 v 0 0 c -4.14,-4.297 -9.26,-6.449 -15.35,-6.449 v 0 0 c -6.09,0 -11.2,2.152 -15.35,6.449 v 0 0 c -4.14,4.352 -6.21,9.403 -6.21,15.149 z m 328.85,0 v 0 14.55 c -25.86,-24.097 -56.4,-36.148 -91.65,-36.148 v 0 0 c -37.04,0 -68.75,13.148 -95.16,39.449 v 0 0 c -26.41,26.246 -39.61,58.095 -39.61,95.535 v 0 0 c 0,37.45 13.2,69.3 39.61,95.54 v 0 0 c 26.41,26.3 58.12,39.45 95.16,39.45 v 0 0 c 37.04,0 68.76,-13.15 95.17,-39.45 v 0 0 c 26.41,-26.24 39.61,-58.09 39.61,-95.54 v 0 -113.386 0 c 0,-5.746 -2.07,-10.797 -6.21,-15.149 v 0 0 c -4.15,-4.297 -9.27,-6.449 -15.36,-6.449 v 0 0 c -6.09,0 -11.2,2.152 -15.34,6.449 v 0 0 c -4.15,4.352 -6.22,9.403 -6.22,15.149 z m -156.64,48.597 v 0 0 c 17.82,-18 39.49,-27 64.99,-27 v 0 0 c 25.51,0 47.18,9 65,27 v 0 0 c 17.76,17.999 26.65,39.599 26.65,64.789 v 0 0 c 0,25.2 -8.89,46.8 -26.65,64.8 v 0 0 c -17.82,17.99 -39.49,26.99 -65,26.99 v 0 0 c -25.5,0 -47.17,-9 -64.99,-26.99 v 0 0 c -17.77,-18 -26.65,-39.6 -26.65,-64.8 v 0 0 c 0,-25.19 8.88,-46.79 26.65,-64.789 z m 259.07,-48.597 v 0 226.776 c 0,5.75 2.07,10.8 6.22,15.15 v 0 0 c 4.14,4.3 9.25,6.45 15.34,6.45 v 0 0 c 6.09,0 11.21,-2.15 15.35,-6.45 v 0 0 c 4.15,-4.35 6.22,-9.4 6.22,-15.15 v 0 -14.55 0 c 25.86,24.1 56.4,36.15 91.64,36.15 v 0 0 c 6.09,0 11.21,-2.15 15.35,-6.45 v 0 0 c 4.15,-4.35 6.22,-9.4 6.22,-15.15 v 0 0 c 0,-5.75 -2.07,-10.8 -6.22,-15.15 v 0 0 c -4.14,-4.3 -9.26,-6.45 -15.35,-6.45 v 0 0 c -25.5,0 -47.17,-9 -64.99,-26.99 v 0 0 c -17.77,-18 -26.65,-39.6 -26.65,-64.8 v 0 -113.386 0 c 0,-5.746 -2.07,-10.797 -6.22,-15.149 v 0 0 c -4.14,-4.297 -9.26,-6.449 -15.35,-6.449 v 0 0 c -6.09,0 -11.2,2.152 -15.34,6.449 v 0 0 c -4.15,4.352 -6.22,9.403 -6.22,15.149 z m 318.07,205.176 h -59.3 v -145.78 c 0,-10.45 3.69,-19.35 11.08,-26.697 v 0 0 c 7.34,-7.399 16.22,-11.102 26.66,-11.102 v 0 0 c 10.43,0 19.41,3.778 26.95,11.324 v 0 0 c 3.94,3.95 8.89,5.926 14.83,5.926 v 0 0 c 5.93,0 11.05,-1.976 15.34,-5.926 v 0 0 c 4.35,-4.296 6.52,-9.421 6.52,-15.371 v 0 0 c 0,-5.949 -2.17,-11.074 -6.52,-15.375 v 0 0 c -15.82,-15.847 -34.86,-23.773 -57.12,-23.773 v 0 0 c -22.27,0 -41.31,7.926 -57.13,23.773 v 0 0 c -15.83,15.848 -23.74,34.922 -23.74,57.221 v 0 275.37 0 c 0,5.75 2.07,10.8 6.21,15.15 v 0 0 c 4.15,4.3 9.26,6.45 15.35,6.45 v 0 0 c 6.09,0 11.21,-2.15 15.35,-6.45 v 0 0 c 4.15,-4.35 6.22,-9.4 6.22,-15.15 v 0 -86.39 h 59.3 v 0 c 6.09,0 11.2,-2.15 15.35,-6.45 v 0 0 c 4.14,-4.35 6.21,-9.4 6.21,-15.15 v 0 0 c 0,-5.75 -2.07,-10.8 -6.21,-15.15 v 0 0 c -4.15,-4.3 -9.26,-6.45 -15.35,-6.45 v 0" /></g></g><g
         id="g36"><g
           clip-path="url(#clipPath42)"
           id="g38"><path
             id="path44"
             style="fill:#f27316;fill-opacity:1;fill-rule:nonzero;stroke:none"
             d="m 1162.38,487.137 v 0 h -115.91 v 0 c -6.09,0 -11.2,2.148 -15.35,6.449 v 0 0 c -4.14,4.348 -6.21,9.398 -6.21,15.148 v 0 0 c 0,5.746 2.07,10.797 6.21,15.149 v 0 0 c 4.15,4.297 9.26,6.449 15.35,6.449 v 0 h 115.91 v 0 c 9.68,0 17.94,3.422 24.78,10.273 v 0 0 c 6.84,6.848 10.26,15.122 10.26,24.821 v 0 0 c 0,9.699 -3.42,17.972 -10.26,24.824 v 0 0 c -6.84,6.848 -15.1,10.273 -24.78,10.273 v 0 h -59.3 v 0 c -21.57,0 -39.99,7.649 -55.26,22.946 v 0 0 c -15.28,15.301 -22.91,33.746 -22.91,55.344 v 0 0 c 0,21.597 7.63,40.046 22.91,55.347 v 0 0 c 15.27,15.297 33.69,22.945 55.26,22.945 v 0 h 84.08 v 0 c 5.74,0 10.78,-2.148 15.13,-6.449 v 0 0 c 4.29,-4.347 6.44,-9.398 6.44,-15.148 v 0 0 c 0,-5.75 -2.15,-10.797 -6.44,-15.149 v 0 0 c -4.35,-4.3 -9.39,-6.449 -15.13,-6.449 v 0 h -84.08 v 0 c -9.69,0 -17.95,-3.426 -24.79,-10.273 v 0 0 c -6.84,-6.848 -10.25,-15.125 -10.25,-24.824 v 0 0 c 0,-9.696 3.41,-17.973 10.25,-24.821 v 0 0 c 6.84,-6.847 15.1,-10.273 24.79,-10.273 v 0 h 59.3 v 0 c 21.56,0 39.98,-7.649 55.26,-22.949 v 0 0 c 15.27,-15.297 22.91,-33.747 22.91,-55.344 v 0 0 c 0,-21.598 -7.64,-40.047 -22.91,-55.344 v 0 0 c -15.28,-15.297 -33.7,-22.945 -55.26,-22.945 z m 367.41,39.445 v 0 0 c -26.41,-26.297 -58.13,-39.445 -95.17,-39.445 v 0 0 c -37.03,0 -68.76,13.148 -95.16,39.445 v 0 0 c -26.41,26.246 -39.61,58.094 -39.61,95.539 v 0 0 c 0,37.445 13.2,69.293 39.61,95.539 v 0 0 c 26.4,26.297 58.13,39.445 95.16,39.445 v 0 0 c 37.04,0 68.76,-13.148 95.17,-39.445 v 0 0 c 26.41,-26.246 39.61,-58.094 39.61,-95.539 v 0 0 c 0,-37.445 -13.2,-69.293 -39.61,-95.539 z m -160.16,30.746 v 0 0 c 17.82,-18 39.49,-26.996 64.99,-26.996 v 0 0 c 25.51,0 47.17,8.996 64.99,26.996 v 0 0 c 17.77,17.996 26.66,39.594 26.66,64.793 v 0 0 c 0,25.195 -8.89,46.793 -26.66,64.793 v 0 0 c -17.82,17.996 -39.48,26.996 -64.99,26.996 v 0 0 c -25.5,0 -47.17,-9 -64.99,-26.996 v 0 0 c -17.77,-18 -26.65,-39.598 -26.65,-64.793 v 0 0 c 0,-25.199 8.88,-46.797 26.65,-64.793 z m 302.2,313.164 v 0 -361.758 c 0,-5.75 -2.08,-10.8 -6.22,-15.148 v 0 0 c -4.14,-4.301 -9.26,-6.449 -15.35,-6.449 v 0 0 c -6.09,0 -11.21,2.148 -15.35,6.449 v 0 0 c -4.14,4.348 -6.21,9.398 -6.21,15.148 v 0 361.758 0 c 0,5.75 2.07,10.801 6.21,15.149 v 0 0 c 4.14,4.3 9.26,6.449 15.35,6.449 v 0 0 c 6.09,0 11.21,-2.149 15.35,-6.449 v 0 0 c 4.14,-4.348 6.22,-9.399 6.22,-15.149 z m 285.72,-361.758 v 0 14.547 c -25.86,-24.097 -56.41,-36.144 -91.65,-36.144 v 0 0 c -37.04,0 -68.76,13.148 -95.16,39.445 v 0 0 c -26.41,26.246 -39.61,58.094 -39.61,95.539 v 0 113.387 0 c 0,5.75 2.07,10.801 6.21,15.148 v 0 0 c 4.14,4.301 9.26,6.449 15.35,6.449 v 0 0 c 6.09,0 11.21,-2.148 15.35,-6.449 v 0 0 c 4.14,-4.347 6.21,-9.398 6.21,-15.148 v 0 -113.387 0 c 0,-25.199 8.89,-46.797 26.66,-64.793 v 0 0 c 17.82,-18 39.48,-26.996 64.99,-26.996 v 0 0 c 25.51,0 47.17,8.996 64.99,26.996 v 0 0 c 17.77,17.996 26.66,39.594 26.66,64.793 v 0 113.387 0 c 0,5.75 2.07,10.801 6.22,15.148 v 0 0 c 4.14,4.301 9.25,6.449 15.34,6.449 v 0 0 c 6.09,0 11.21,-2.148 15.35,-6.449 v 0 0 c 4.15,-4.347 6.22,-9.398 6.22,-15.148 v 0 -226.774 0 c 0,-5.75 -2.07,-10.8 -6.22,-15.148 v 0 0 c -4.14,-4.301 -9.26,-6.449 -15.35,-6.449 v 0 0 c -6.09,0 -11.2,2.148 -15.34,6.449 v 0 0 c -4.15,4.348 -6.22,9.398 -6.22,15.148 z m 204.86,205.176 h -59.3 V 568.125 c 0,-10.449 3.69,-19.348 11.08,-26.695 v 0 0 c 7.34,-7.399 16.22,-11.098 26.65,-11.098 v 0 0 c 10.44,0 19.42,3.773 26.96,11.32 v 0 0 c 3.94,3.953 8.88,5.926 14.83,5.926 v 0 0 c 5.93,0 11.05,-1.973 15.34,-5.926 v 0 0 c 4.35,-4.297 6.52,-9.422 6.52,-15.371 v 0 0 c 0,-5.949 -2.17,-11.074 -6.52,-15.375 v 0 0 c -15.82,-15.847 -34.86,-23.769 -57.13,-23.769 v 0 0 c -22.26,0 -41.3,7.922 -57.13,23.769 v 0 0 c -15.82,15.848 -23.73,34.922 -23.73,57.219 v 0 275.371 0 c 0,5.75 2.07,10.801 6.22,15.149 v 0 0 c 4.14,4.3 9.25,6.449 15.34,6.449 v 0 0 c 6.09,0 11.21,-2.149 15.35,-6.449 v 0 0 c 4.15,-4.348 6.22,-9.399 6.22,-15.149 v 0 -86.391 h 59.3 v 0 c 6.09,0 11.2,-2.148 15.35,-6.449 v 0 0 c 4.14,-4.347 6.21,-9.398 6.21,-15.148 v 0 0 c 0,-5.75 -2.07,-10.797 -6.21,-15.149 v 0 0 c -4.15,-4.3 -9.26,-6.449 -15.35,-6.449 z m 142.86,144.137 v 0 0 c 4.69,-4.652 7.04,-10.402 7.04,-17.25 v 0 0 c 0,-6.848 -2.35,-12.598 -7.04,-17.246 v 0 0 c -4.69,-4.703 -10.43,-7.051 -17.22,-7.051 v 0 0 c -6.84,0 -12.6,2.348 -17.3,7.051 v 0 0 c -4.64,4.648 -6.96,10.398 -6.96,17.246 v 0 0 c 0,6.848 2.32,12.598 6.96,17.25 v 0 0 c 4.7,4.699 10.46,7.047 17.3,7.047 v 0 0 c 6.79,0 12.53,-2.348 17.22,-7.047 z m -38.79,-349.313 v 0 226.774 c 0,5.75 2.15,10.801 6.44,15.148 v 0 0 c 4.29,4.301 9.34,6.449 15.13,6.449 v 0 0 c 5.74,0 10.75,-2.148 15.05,-6.449 v 0 0 c 4.34,-4.347 6.51,-9.398 6.51,-15.148 v 0 -226.774 0 c 0,-5.75 -2.17,-10.8 -6.51,-15.148 v 0 0 c -4.3,-4.301 -9.31,-6.449 -15.05,-6.449 v 0 0 c -5.79,0 -10.84,2.148 -15.13,6.449 v 0 0 c -4.29,4.348 -6.44,9.398 -6.44,15.148 z m 335,17.848 v 0 0 c -26.41,-26.297 -58.11,-39.445 -95.1,-39.445 v 0 0 c -37.04,0 -68.75,13.148 -95.16,39.445 v 0 0 c -26.41,26.246 -39.61,58.094 -39.61,95.539 v 0 0 c 0,37.445 13.2,69.293 39.61,95.539 v 0 0 c 26.41,26.297 58.12,39.445 95.16,39.445 v 0 0 c 36.99,0 68.69,-13.148 95.1,-39.445 v 0 0 c 26.45,-26.246 39.68,-58.094 39.68,-95.539 v 0 0 c 0,-37.445 -13.23,-69.293 -39.68,-95.539 z m -160.09,30.746 v 0 0 c 17.77,-18 39.43,-26.996 64.99,-26.996 v 0 0 c 25.51,0 47.15,8.996 64.92,26.996 v 0 0 c 17.82,17.996 26.73,39.594 26.73,64.793 v 0 0 c 0,25.195 -8.91,46.793 -26.73,64.793 v 0 0 c -17.77,17.996 -39.41,26.996 -64.92,26.996 v 0 0 c -25.56,0 -47.22,-9 -64.99,-26.996 v 0 0 c -17.77,-18 -26.65,-39.598 -26.65,-64.793 v 0 0 c 0,-25.199 8.88,-46.797 26.65,-64.793 z m 485.49,-48.594 v 0 113.387 c 0,25.195 -8.91,46.793 -26.73,64.793 v 0 0 c -17.77,17.996 -39.41,26.996 -64.92,26.996 v 0 0 c -25.55,0 -47.22,-9 -64.99,-26.996 v 0 0 c -17.77,-18 -26.65,-39.598 -26.65,-64.793 v 0 -113.387 0 c 0,-5.75 -2.07,-10.8 -6.22,-15.148 v 0 0 c -4.14,-4.301 -9.26,-6.449 -15.35,-6.449 v 0 0 c -6.14,0 -11.28,2.148 -15.42,6.449 v 0 0 c -4.09,4.348 -6.14,9.398 -6.14,15.148 v 0 226.774 0 c 0,5.75 2.05,10.801 6.14,15.148 v 0 0 c 4.14,4.301 9.28,6.449 15.42,6.449 v 0 0 c 6.09,0 11.21,-2.148 15.35,-6.449 v 0 0 c 4.15,-4.347 6.22,-9.398 6.22,-15.148 v 0 -14.547 0 c 25.86,24.098 56.4,36.144 91.64,36.144 v 0 0 c 36.99,0 68.69,-13.148 95.09,-39.445 v 0 0 c 26.46,-26.246 39.69,-58.094 39.69,-95.539 v 0 -113.387 0 c 0,-5.75 -2.07,-10.8 -6.22,-15.148 v 0 0 c -4.14,-4.301 -9.25,-6.449 -15.34,-6.449 v 0 0 c -6.15,0 -11.29,2.148 -15.43,6.449 v 0 0 c -4.09,4.348 -6.14,9.398 -6.14,15.148" /></g></g><g
         id="g46"><g
           clip-path="url(#clipPath52)"
           id="g48"><path
             id="path54"
             style="fill:#ffffff;fill-opacity:1;fill-rule:nonzero;stroke:none"
             d="m 297.758,70.457 c 1.082,0 1.871,0 3.219,0.2618 3.519,0.3007 7.3,0.3007 11.082,0.5625 1.871,0 3.742,0 5.652,0 h 1.348 c 1.609,0 3.48,0 5.39,0.789 2.696,0.8242 5.391,0.8242 8.61,1.086 4.304,0 8.347,1.3515 12.129,2.4375 1.347,0.5234 2.96,1.0859 4.308,1.3515 2.172,0.5235 2.992,3.5235 2.695,5.3985 -0.523,1.6132 -1.875,3.2226 -3.484,3.5234 -1.086,0.2617 -2.172,0 -3.254,-0.3008 -4.308,-0.7851 -8.613,-1.6094 -13.18,-1.3476 -1.91,0 -3.781,0 -5.39,-0.5274 -2.996,-1.0859 -5.953,-0.8242 -8.649,-0.8242 -2.132,0 -4.304,0 -6.738,-0.5234 h -2.433 -1.047 -1.348 v 0.2617 c 0,1.3515 0.262,2.9609 0.523,4.3125 0.825,3 1.348,6.2226 1.872,9.4492 1.91,9.1878 3.781,18.3708 6.476,27.2968 1.086,2.961 1.91,5.926 2.434,9.149 0.261,2.437 0.824,5.136 1.347,7.574 l 0.825,3.789 c 0.261,2.137 1.046,4.308 1.609,6.746 0.785,2.965 1.871,6.187 2.133,9.711 1.347,9.976 3.258,20.25 5.129,29.699 0.824,4.875 1.91,9.973 2.957,14.848 1.347,5.66 2.433,11.324 3.519,17.285 1.61,8.625 3.781,18.637 7,28.871 l 0.266,0.562 c 1.347,4.051 2.695,8.887 2.695,13.762 -0.265,3.488 0.559,7.274 2.434,11.586 1.082,2.699 1.906,5.402 2.695,7.574 1.348,3.528 0.559,5.926 -0.266,7.274 -0.82,1.351 -2.695,3 -6.476,2.703 -1.871,0 -3.781,0 -5.652,0.297 l -1.086,0.265 c -4.567,0.524 -8.086,-1.613 -9.696,-5.964 l -0.261,-0.524 c -0.563,-1.613 -1.348,-3.523 -1.61,-5.926 -0.301,-2.172 -0.824,-4.609 -1.648,-6.746 -2.133,-5.965 -3.219,-11.886 -4.305,-17.851 -0.523,-2.137 -0.785,-4.575 -1.348,-6.746 l -1.086,-4.313 c -0.785,-2.965 -1.871,-6.187 -1.871,-9.449 -0.261,-2.965 -0.824,-5.926 -1.609,-9.188 -1.086,-3.75 -1.91,-7.8 -1.91,-12.148 0,0 -0.262,-0.524 -0.262,-0.789 -0.262,-0.262 -0.262,-0.824 -0.523,-1.086 -1.348,-4.313 -2.434,-8.926 -3.52,-14.324 l -0.785,-4.836 c -1.086,-4.313 -1.91,-8.66 -1.91,-12.973 -0.262,-0.789 -0.262,-1.875 -0.524,-2.699 -0.265,-0.527 -0.265,-1.09 -0.562,-1.352 l -0.524,-2.699 -5.656,-25.387 c -0.558,-2.961 -1.347,-5.66 -1.906,-8.621 l -2.398,-10.539 -0.297,-1.347 c -0.789,-2.965 -1.61,-6.188 -1.61,-9.711 0,-0.828 0,-1.352 -0.265,-1.875 -2.168,-5.137 -2.696,-10.539 -3.219,-15.676 -0.563,-3.5236 -0.824,-7.0119 -1.645,-10.5353 -0.789,-2.4375 -0.527,-4.8359 -0.265,-7.0117 v -0.5235 c 0.265,-4.3515 1.91,-7.8398 4.605,-10.8007 0.262,4.3125 0.262,8.8867 1.051,12.9375 1.906,11.621 4.34,23.5077 6.477,35.0937 l 7.3,45.895 c 0.262,2.175 1.871,4.05 2.957,5.964 1.61,-3.527 -0.824,-6.75 -1.609,-10.273 -0.563,-1.875 -1.086,-3.789 1.047,-5.926 -1.61,-7.051 -5.094,-14.062 -4.043,-21.597 0.297,-5.137 -2.133,-10.012 -2.957,-15.149 -0.789,-4.051 -0.524,-7.801 -1.086,-11.848 -0.524,-4.351 -1.348,-8.9254 -2.399,-13.8004 -0.558,-2.6992 -1.347,-5.3984 -2.171,-8.625 -0.821,-4.5742 -1.348,-9.1836 -3.516,-13.7578 2.168,-1.914 4.602,-2.1758 6.215,-2.1758 z m 14.562,125.797 c -0.261,1.351 -0.261,2.437 -0.261,3.527 0.261,0.824 1.046,1.614 1.871,2.438 l 0.261,-2.699 z m -2.433,-11.32 c -0.824,0.824 -1.348,1.347 -1.348,1.875 0.262,1.347 1.086,2.433 1.871,3.523 l 1.348,-1.875 z m 72.515,-80.469 h 2.133 c 2.695,0 5.391,0.562 7.824,2.176 l 1.911,0.824 c 5.39,2.961 10.781,6.187 14.824,11.586 1.347,1.914 2.957,3.789 4.832,5.664 1.086,1.086 2.172,2.437 3.258,3.785 7.261,8.926 13.476,18.898 19.914,29.699 0.824,1.348 0.824,3.262 0.3,4.61 -0.562,1.351 -1.648,2.402 -2.695,2.699 -2.433,0.789 -4.867,-0.297 -5.953,-2.438 -0.523,-1.347 -1.086,-2.437 -1.609,-3.785 l -2.434,-4.875 c -5.652,-9.148 -12.391,-17.808 -18.605,-25.347 -1.61,-2.176 -3.485,-4.051 -5.094,-5.961 l -2.172,-2.137 c -1.609,-1.914 -3.52,-3.262 -5.652,-3.789 -0.563,-0.262 -1.348,-0.563 -2.172,-0.563 -5.129,0.563 -11.567,5.403 -12.914,9.188 -10.782,27.258 14.261,35.922 27.476,56.429 2.961,4.579 4.309,9.715 5.656,14.586 v 0.528 c 0.559,1.347 0.262,2.961 0,4.875 -1.347,6.187 -9.96,14.023 -16.437,15.109 -1.086,0 -2.172,0.262 -3.219,0 l -0.562,-0.262 c -4.305,-0.824 -8.61,-1.914 -12.653,-5.136 -8.086,-6.75 -14.824,-15.676 -19.429,-26.172 -1.61,-4.051 -3.219,-8.102 -4.305,-12.149 l -1.086,-2.699 c -1.871,-5.965 -3.223,-12.976 -4.043,-20.812 -0.789,-12.41 3.781,-23.473 7.563,-31.832 2.957,-5.965 7.261,-10.012 12.652,-11.625 4.043,-1.086 8.086,-2.176 12.691,-2.176 z m -5.652,59.133 c 1.609,7.836 4.043,14.586 7,20.808 2.957,6.188 5.914,10.801 8.871,14.848 1.348,1.613 2.996,2.965 5.391,4.051 1.086,0.523 1.91,0.789 2.433,0.789 0.563,0 2.434,0 2.7,-4.84 l -0.528,-2.699 c -1.086,-3.262 -2.172,-6.75 -4.043,-9.746 -4.867,-8.102 -11.867,-15.637 -20.777,-22.649 -0.262,-0.301 -0.524,-0.562 -1.047,-0.562 z m 202.16,-54.782 c 1.613,0 3.223,0.786 4.309,1.348 7.523,3.75 10.219,11.063 11.566,16.988 1.649,6.746 4.344,13.496 6.738,19.161 l 1.348,3.261 c 2.434,5.922 4.867,12.149 5.953,18.899 0.524,4.574 2.133,9.183 3.781,13.234 3.743,10.801 7.786,21.297 13.739,31.047 1.875,3.226 3.781,6.187 5.39,9.449 5.395,9.449 10.524,18.598 18.871,25.91 1.086,1.086 1.086,3.223 0.524,4.313 -1.086,1.875 -3.781,2.437 -5.391,1.086 -8.875,-7.012 -14.562,-16.461 -20.218,-25.383 l -0.262,-0.828 c -2.168,-3.485 -4.305,-7.274 -5.914,-10.797 l -4.043,-7.274 c -2.696,-4.875 -4.606,-9.187 -5.953,-13.5 -0.785,-2.437 -1.61,-4.875 -2.696,-7.273 -2.132,-5.398 -3.781,-10.801 -5.39,-17.285 -1.61,-6.75 -3.481,-14.324 -7.262,-21.074 -2.695,-5.399 -5.391,-9.973 -6.477,-15.637 -0.523,-1.91 -1.609,-3.785 -2.433,-5.398 -0.789,-1.649 -1.348,-1.649 -1.61,-1.649 -0.527,0 -1.085,0 -2.171,0.824 -1.871,1.086 -2.696,1.875 -2.696,3.223 -0.261,1.652 -1.05,3 -1.609,4.352 -0.262,0.523 -0.789,1.351 -1.086,2.136 -0.262,1.086 -0.262,2.438 0,3.789 v 2.7 0.824 c 0,1.347 0,2.961 -0.527,4.312 -6.211,20.246 2.172,41.844 1.613,62.356 v 6.75 c 0,2.699 -0.789,5.922 -3.484,7.273 -0.559,0.301 -1.348,0.563 -2.172,0.563 -22.387,-0.262 -34.215,-59.657 -45.297,-74.805 -2.696,-3.75 -6.18,-6.75 -10.223,-8.625 -0.824,-0.262 -1.086,-0.262 -1.609,0.527 l -0.824,1.348 c -2.696,8.66 -2.957,17.285 -0.524,25.648 1.871,7.047 3.484,14.059 5.094,20.809 l 0.82,3.789 c 0.528,2.137 0.824,4.313 1.086,7.012 0,2.699 -0.262,5.922 -4.867,6.75 -1.609,0 -2.957,0.523 -4.566,1.086 -5.129,1.875 -7.563,-0.825 -8.911,-3.262 -1.086,-1.875 -1.609,-3.789 -1.871,-5.664 l -0.562,-3.223 c -0.785,-4.051 -1.61,-7.836 -2.696,-11.625 -3.218,-10.535 -4.566,-18.636 -4.828,-28.347 0,-0.524 0,-1.348 0,-2.172 v -5.403 c 0.262,-2.961 0.785,-5.398 1.348,-7.535 1.871,-6.75 8.348,-11.625 15.348,-11.625 2.172,0 4.308,0.563 6.214,1.352 5.918,2.437 11.309,6.484 15.09,11.062 5.653,6.746 9.696,13.235 12.391,19.985 2.957,6.75 6.738,13.234 10.519,19.722 -1.347,-9.711 -0.824,-19.461 0,-27.824 1.086,-14.023 5.391,-26.433 13.215,-37.531 2.696,-4.313 6.477,-6.449 9.696,-8.102 1.086,-0.785 2.172,-1.047 3.519,-1.047 z m 91.91,-4.351 h 2.133 c 2.695,0 5.391,0.562 7.824,2.176 l 1.911,0.824 c 5.39,2.961 10.781,6.187 14.824,11.586 1.351,1.914 2.961,3.789 4.832,5.664 1.086,1.086 2.172,2.437 3.258,3.785 7.261,8.926 13.476,18.898 19.914,29.699 0.824,1.348 0.824,3.262 0.3,4.61 -0.562,1.351 -1.648,2.402 -2.695,2.699 -2.433,0.789 -4.867,-0.297 -5.953,-2.438 -0.523,-1.347 -1.086,-2.437 -1.609,-3.785 l -2.434,-4.875 c -5.652,-9.148 -12.391,-17.808 -18.605,-25.347 -1.61,-2.176 -3.485,-4.051 -5.094,-5.961 l -2.172,-2.137 c -1.609,-1.914 -3.516,-3.262 -5.652,-3.789 -0.559,-0.262 -1.348,-0.563 -2.172,-0.563 -5.129,0.563 -11.567,5.403 -12.914,9.188 -10.782,27.258 14.261,35.922 27.48,56.429 2.957,4.579 4.305,9.715 5.652,14.586 v 0.528 c 0.563,1.347 0.262,2.961 0,4.875 -1.347,6.187 -9.96,14.023 -16.437,15.109 -1.086,0 -2.168,0.262 -3.219,0 l -0.562,-0.262 c -4.305,-0.824 -8.61,-1.914 -12.653,-5.136 -8.086,-6.75 -14.824,-15.676 -19.429,-26.172 -1.61,-4.051 -3.219,-8.102 -4.305,-12.149 l -1.086,-2.699 c -1.871,-5.965 -3.219,-12.976 -4.043,-20.812 -0.785,-12.41 3.781,-23.473 7.563,-31.832 2.957,-5.965 7.261,-10.012 12.652,-11.625 4.043,-1.086 8.086,-2.176 12.691,-2.176 z m -5.652,59.133 c 1.609,7.836 4.043,14.586 7,20.808 2.957,6.188 5.914,10.801 8.875,14.848 1.348,1.613 2.992,2.965 5.391,4.051 1.086,0.523 1.906,0.789 2.433,0.789 0.559,0 2.434,0 2.696,-4.84 l -0.528,-2.699 c -1.082,-3.262 -2.168,-6.75 -4.043,-9.746 -4.867,-8.102 -11.867,-15.637 -20.777,-22.649 -0.262,-0.301 -0.524,-0.562 -1.047,-0.562 z m 80.305,-68.2816 c 3.515,0 6.476,1.0508 8.347,2.3984 5.391,4.8752 10.52,10.2732 13.215,18.1132 4.043,11.059 6.215,21.035 6.477,31.047 0,4.047 1.609,5.922 5.129,7.012 l 1.871,0.824 c 0.824,0 1.347,0.262 2.172,0.523 2.695,0.528 5.652,1.614 8.086,3.528 6.738,4.836 11.57,8.359 16.175,11.847 1.61,1.348 2.957,3 4.043,4.348 1.086,1.613 0.524,3.75 -0.261,4.574 -1.086,2.176 -4.047,2.699 -5.954,1.352 -0.789,-0.524 -1.609,-1.352 -2.433,-2.176 l -1.051,-1.051 c -6.738,-6.222 -14.562,-12.445 -24.559,-14.847 -1.871,-0.563 -3.218,-0.825 -4.042,-0.825 -0.262,0.262 -0.786,2.438 -1.348,3.789 -2.133,7.536 -8.086,9.711 -13.176,11.586 -1.086,0.297 -2.695,0 -3.519,-0.265 -4.571,-1.086 -8.614,-5.137 -10.258,-9.973 -1.348,-4.051 -0.262,-8.359 2.695,-11.887 1.645,-1.875 3.52,-3.222 5.953,-4.046 2.695,-0.829 2.695,-1.352 2.133,-4.051 -1.047,-5.664 -2.133,-11.887 -3.746,-18.637 -1.082,-5.398 -2.695,-9.449 -4.34,-12.672 -1.051,-1.914 -1.871,-3.527 -2.957,-4.875 -0.527,-0.527 -1.086,-0.789 -1.086,-0.789 0,0 -0.527,0.262 -1.051,0.789 -4.043,4.051 -6.738,8.922 -8.648,14.848 -3.219,10.801 -4.043,22.949 -2.434,36.445 l 2.434,14.848 c 0.824,4.051 1.609,8.101 2.172,12.148 1.609,11.363 3.218,21.336 6.476,31.61 1.61,5.402 2.957,11.062 4.305,16.461 1.875,5.925 3.484,12.148 5.395,18.335 4.042,12.977 8.347,26.211 12.652,39.149 l 1.609,5.137 c 1.086,2.699 1.348,5.398 1.348,8.097 0.301,2.438 -1.348,4.875 -3.481,5.66 -3.257,1.352 -7.3,0.829 -10.257,0 -2.696,-0.785 -3.485,-3.222 -3.782,-4.574 -0.261,-0.523 -0.261,-0.824 -0.261,-1.086 -2.957,-7.535 -5.391,-15.375 -7.825,-22.683 l -2.398,-7.539 c -4.867,-14.848 -10.258,-32.657 -14.563,-50.508 -0.562,-1.61 -0.824,-2.961 -1.347,-4.309 -0.824,-2.437 -1.61,-4.84 -1.91,-7.539 -0.785,-5.398 -1.61,-10.797 -2.696,-16.199 l -0.261,-1.91 c -0.524,-1.614 -0.786,-3.227 -1.348,-4.836 -0.523,-2.438 -1.086,-4.875 -1.348,-7.574 -0.785,-7.012 -1.609,-14.325 -2.132,-21.598 l -0.825,-8.625 c 0,-0.824 -0.261,-1.352 -0.261,-2.176 0,-1.613 0,-3.523 0.261,-5.137 l 1.61,-9.449 c 0.562,-3.222 1.086,-6.75 1.91,-10.234 2.394,-11.102 8.609,-20.551 19.652,-29.6994 2.172,-1.6484 5.656,-2.6992 9.438,-2.6992 z m 4.043,196.2536 -0.262,2.176 0.262,-0.301 v 1.914 c 0.261,0.262 1.086,0.524 1.906,1.086 l 0.789,-0.3 c -0.262,-0.524 -0.523,-1.051 -0.523,-1.614 l -1.086,-1.609 c -0.528,-0.266 -0.825,-0.828 -1.086,-1.352 z m -20.219,-79.64 c -0.524,0.261 -0.785,0.824 -0.785,1.086 0.523,2.437 0.523,4.836 1.047,7.273 l -0.524,0.266 c 1.348,5.398 2.957,11.359 4.305,17.285 l 8.91,33.746 c 1.086,5.137 3.223,10.273 4.832,15.41 0,0.789 0.824,1.352 1.086,1.875 0.82,-0.824 1.906,-1.351 2.172,-2.176 0,-0.261 -0.563,-1.05 -0.824,-1.347 -1.875,-0.789 -2.434,-1.352 0.261,-2.137 0,0 0,-0.828 -0.261,-1.09 -3.223,-3.785 -5.391,-7.836 -4.571,-12.41 0.266,-0.824 0,-1.613 -0.261,-2.438 -3.52,-4.312 -5.129,-9.187 -3.52,-14.585 0,-0.79 -0.523,-2.137 -1.082,-2.7 -3.223,-2.437 -3.484,-5.664 -2.961,-8.886 0,-1.649 -0.523,-2.7 -0.82,-4.352 -1.613,-2.961 -3.223,-5.922 -2.699,-9.711 l -0.262,-1.875 c -0.785,-3.262 -1.348,-6.484 -2.133,-9.449 0,-0.824 0,-1.91 -0.562,-2.699 -0.262,-0.563 -1.086,-0.825 -1.348,-1.086 z m 26.433,-51.559 c -0.261,0 -0.562,0.262 -0.562,0.527 -1.348,1.61 -1.047,3.786 0.301,4.875 0,0.262 0.261,0.524 0.261,0.524 l 0.262,-0.262 c 0,0 0.262,0 0.262,-0.262 v -1.351 c -0.262,-0.262 -0.262,-0.563 -0.262,-0.824 v -0.789 c 0,-0.563 0,-1.348 0,-1.911 v -0.265 c 0,0 0,-0.262 -0.262,-0.262 z M 941.156,93.1406 c 1.649,0 3.52,0.2617 5.129,1.0899 0.262,0.2617 0.824,0.2617 1.348,0.2617 h 1.609 1.348 c 9.996,1.6133 17.82,6.4848 22.914,14.8478 6.738,11.324 13.476,22.683 19.168,34.57 l 3.48,7.539 1.61,3.785 c 0.301,0.825 1.086,2.7 0.301,4.875 -0.825,1.614 -2.172,2.7 -4.043,2.961 h -0.563 c -1.609,0 -2.957,-0.824 -3.781,-2.437 -0.262,-0.824 -0.524,-1.61 -1.047,-2.699 0,-0.524 -0.301,-1.086 -0.563,-1.348 -0.261,-1.09 -0.785,-2.176 -1.086,-3.227 -1.046,-2.437 -1.871,-4.875 -2.957,-6.75 -5.128,-9.746 -10.519,-19.195 -15.089,-27.296 -2.168,-3.485 -5.129,-6.45 -9.434,-10.235 -0.824,-0.562 -1.348,-0.824 -1.609,-0.824 -0.563,0 -1.086,0.562 -1.348,0.824 -3.781,2.961 -6.477,6.75 -9.434,11.324 -0.261,0.262 -0.261,1.348 -0.562,1.911 v 0.527 l -2.395,31.047 c 0,2.172 -0.3,4.312 0.262,6.222 1.348,7.012 0.524,14.547 -2.434,23.735 -1.871,4.875 -5.128,8.101 -9.433,8.101 -2.695,0 -5.652,-1.351 -8.086,-4.05 -2.172,-2.137 -4.043,-4.575 -5.918,-7.012 l -2.434,-2.438 c -4.863,-5.925 -8.644,-10.8 -11.605,-15.937 L 891.59,140.91 c 0.262,3.528 0.523,7.051 0.523,10.539 0,0.824 0,1.61 0.262,2.699 l 0.262,1.348 c 0,0.266 0,0.563 0.301,1.09 1.347,3.785 1.871,7.836 2.132,11.621 0.262,1.352 0.563,2.703 0.563,4.051 0.523,2.699 1.047,5.101 1.347,7.801 0.786,4.347 1.348,8.398 1.872,12.711 0.523,4.046 0.824,7.011 -0.825,8.886 -1.609,1.91 -4.043,2.438 -8.347,2.699 h -3.219 c -5.652,0 -6.738,-2.136 -8.348,-6.187 l -0.824,-2.176 c -0.824,-1.875 -1.348,-3.484 -1.348,-5.137 0.262,-2.96 -0.261,-5.921 -0.523,-8.886 -0.563,-2.438 -0.824,-4.61 -0.824,-7.012 -0.262,-4.609 -0.824,-9.184 -1.348,-13.496 -0.523,-5.137 -1.086,-10.273 -1.348,-15.414 0,-2.137 -0.261,-4.047 -0.523,-6.184 0,-1.914 -0.301,-3.789 -0.562,-5.402 0,-2.699 -0.262,-5.398 0.562,-8.098 v -0.824 c 0.785,-3.523 1.609,-7.574 5.09,-10.273 1.648,-1.614 3.781,-2.137 5.953,-2.137 2.957,0 5.914,1.609 7.523,4.574 l 21.039,36.445 c 1.875,3.524 4.309,7.575 7.829,11.887 v -17.551 c 0,-1.609 -0.266,-3.523 -0.266,-5.136 -0.297,-3.785 -0.297,-7.836 0.266,-11.586 2.132,-11.098 6.175,-21.598 11.566,-31.047 3.781,-6.2228 7.824,-7.5744 10.781,-7.5744 z m -14,22.9494 c -0.261,3.523 -1.609,6.484 -1.871,9.449 -0.562,7.274 -0.562,14.586 -1.086,21.859 -0.824,9.45 -0.562,14.848 -1.347,24.297 0,1.352 1.086,2.7 1.609,4.313 2.434,-1.352 -0.262,-0.262 -0.262,-2.399 0,-1.351 0.524,-6.488 2.957,-6.75 -0.261,-4.613 -2.695,-5.961 -0.523,-9.75 1.347,-2.699 0.262,-6.187 0.523,-9.449 0,-2.398 1.086,-4.574 1.086,-7.012 0.524,-2.437 0.524,-5.398 0.524,-8.359 0,-1.613 0,-3.527 -0.262,-5.402 0,-3.524 0.824,-6.746 -1.348,-10.797 z m 10.782,-0.262 -1.61,1.086 c -0.262,5.102 -0.824,10.801 -1.348,15.899 l 4.043,-15.637 c 0,-0.262 -0.824,-0.824 -1.085,-1.348 z m 70.602,166.293 c 1.09,0.527 2.17,1.352 3.26,2.176 1.61,1.875 2.43,4.312 1.87,7.012 -1.87,8.359 -3.78,16.984 -3.22,25.648 v 1.348 c 0,2.136 -0.56,3.789 -1.08,5.664 -0.53,1.875 -0.83,3.523 -0.53,5.136 v 0.786 l -0.82,1.351 c -0.52,0.563 -0.82,0.824 -1.09,1.348 -1.34,1.914 -3.48,3 -5.65,3 -0.82,-0.301 -1.346,-0.301 -1.87,-0.563 -1.91,-0.785 -2.433,-2.437 -2.695,-3.484 l -0.563,-0.828 c -1.609,-3.785 -2.132,-7.836 -1.609,-12.149 0.523,-3.222 0.824,-6.746 0.824,-10.273 0,-1.348 0.262,-2.398 0.262,-3.75 0.262,-3 0.262,-5.961 0.523,-8.922 0.262,-2.437 0.262,-4.875 0.563,-7.273 0,-1.09 0,-3.266 1.871,-4.875 2.694,-2.438 6.474,-2.965 9.954,-1.352 z m 72.52,-174.394 c 2.44,0 3.78,1.613 4.6,2.699 0.27,0.527 0.53,0.789 0.79,1.09 6.22,3.75 10,9.449 13.48,15.109 0.56,1.09 1.35,2.137 2.43,3.227 5.92,7.312 11.31,15.671 16.44,26.996 0.56,0.562 0.82,1.914 0.82,2.961 0,1.351 -0.56,3 -1.91,3.789 -1.61,1.086 -4.04,0.824 -5.65,-0.528 -0.79,-0.824 -1.35,-2.172 -1.61,-3.261 -0.52,-2.137 -1.35,-4.047 -2.43,-6.188 l -0.53,-0.562 c -4.04,-8.36 -9.69,-15.633 -14.04,-21.036 l -0.78,-0.824 c -2.44,-2.961 -4.61,-5.66 -7.56,-7.273 -0.53,-0.262 -0.79,-0.262 -1.35,-0.262 -0.79,0 -1.09,0.785 -1.35,1.613 -1.35,10.797 5.95,31.832 9.7,42.106 4.04,9.976 16.47,27.824 -0.53,31.871 -0.52,0 -1.08,0.266 -1.61,0.527 -1.08,0.262 -2.17,0.262 -3.26,0.262 -2.39,0 -5.91,-0.789 -7.78,-5.137 -1.35,-2.961 -3,-6.449 -4.05,-9.972 -2.17,-6.489 -4.34,-12.977 -5.95,-19.161 -1.09,-3.789 -2.43,-6.488 -4.57,-8.664 -4.04,-4.312 -8.08,-9.148 -11.6,-13.761 l -2.96,-3.485 c -2.69,-3.261 -5.91,-6.226 -9.69,-9.187 h -0.57 c -1.61,2.699 -1.87,5.398 -1.34,8.359 l 1.64,7.012 c 1.61,7.574 3.22,15.414 6.18,22.687 1.35,3.524 2.43,6.485 2.96,9.45 1.08,4.875 3.52,9.449 7.82,14.586 0.56,0.785 2.43,3.484 4.31,3.222 1.08,0 1.34,-1.086 1.91,-3.484 0.26,-0.563 0.26,-0.828 0.26,-1.352 0.26,-0.562 0.26,-1.086 0.26,-1.648 0.26,-0.528 0.26,-1.352 0.26,-1.875 0.3,-1.352 0.3,-2.965 0,-4.574 l -0.52,-3 c 0,-1.614 1.35,-3.227 2.69,-3.75 2.17,-1.09 4.57,0.261 5.39,2.699 2.18,8.625 0.83,16.461 -3.78,23.211 -4.56,6.75 -11.04,8.621 -18.6,5.66 -9.7,-3.785 -16.96,-10.797 -21.57,-21.07 -5.91,-13.5 -9.7,-24.825 -11.83,-35.36 l -0.3,-1.351 c -0.78,-4.051 -1.35,-8.098 -1.35,-12.41 0.3,-5.665 2.44,-10.536 7.3,-15.375 2.14,-2.172 5.13,-3.524 8.88,-3.524 7.3,0.262 13.48,2.438 18.34,7.012 5.66,5.137 10.78,10.801 15.35,16.762 0.3,0.261 0.3,0.785 0.56,1.05 0,-1.05 -0.26,-2.402 -0.26,-3.488 -0.56,-4.613 -1.08,-9.449 -0.56,-14.324 0.82,-4.574 2.69,-8.625 6.21,-12.938 2.96,-3.785 7.27,-4.609 10.52,-4.875 0.27,-0.261 0.53,-0.261 0.79,-0.261 z m 50.13,6.187 c 8.91,0 16.17,4.875 20.52,13.5 l 0.26,0.824 c 0.78,1.614 1.61,3.223 2.69,4.575 1.35,1.914 2.14,4.05 2.96,5.96 1.35,3.79 6.74,13.762 7.83,16.989 0.52,1.648 0.78,2.699 0.78,3.785 0,1.351 -0.78,2.961 -2.39,3.789 -2.18,1.086 -5.13,-0.266 -5.7,-2.703 -0.78,-3.785 -5.91,-13.496 -7.52,-17.02 l -2.43,-5.925 c -1.09,-2.961 -2.44,-5.926 -4.87,-9.188 -2.69,-3.488 -3.48,-4.051 -4.3,-4.051 -1.09,0 -2.7,0.563 -5.39,1.614 h -0.53 c -1.91,0.824 -3.52,1.351 -4.05,3 l -0.82,1.351 c -1.09,2.137 -2.13,4.047 -2.43,5.922 l -0.26,0.828 c -0.79,5.922 -1.61,12.41 -1.09,18.598 1.35,14.32 3.52,28.644 5.69,41.054 1.05,8.102 2.7,16.461 4.04,24.563 l 1.61,10.535 c 0.79,3.227 1.88,4.836 4.57,5.399 6.74,1.613 12.69,5.136 18.35,8.363 1.87,1.086 3.48,2.176 5.39,2.961 1.87,1.09 3.48,2.176 4.83,4.051 1.08,1.351 1.08,3.261 0,4.613 -1.05,1.609 -3.48,2.137 -5.09,1.047 l -8.65,-5.66 -2.96,-2.137 c -4.04,-2.699 -8.35,-4.352 -13.21,-5.137 l 1.61,6.75 c 1.64,8.098 3.51,16.195 5.39,24.035 1.91,6.746 3.52,13.496 5.39,19.946 0.82,3 1.91,6.226 2.69,9.449 0.83,3 0.83,5.961 0.56,8.66 0,1.613 -0.56,4.051 -3.52,5.402 -5.12,2.699 -11.04,0.785 -13.74,-4.051 -0.82,-1.351 -1.87,-3.523 -2.69,-5.96 l -1.08,-3.75 -5.66,-18.899 c -3.22,-12.449 -6.48,-25.945 -10.26,-41.844 -1.05,-3.789 -2.69,-5.699 -5.65,-6.75 -5.65,-1.914 -9.7,-5.699 -13.74,-9.449 l -0.26,-0.301 c -1.35,-1.05 -3.78,-3.488 -2.43,-7.273 0.52,-1.09 1.6,-1.875 2.95,-1.875 2.17,0 4.31,1.875 5.65,3.223 3,3.527 6.22,5.925 10.26,7.839 h 0.26 c 0,0 -0.26,0 -0.26,-0.265 -0.82,-6.746 -1.87,-13.496 -2.69,-20.547 l -1.87,-12.41 -1.65,-9.711 c -1.35,-9.188 -2.96,-18.637 -2.96,-28.086 0,-1.086 0,-2.137 0.26,-3.223 0,-2.176 0,-4.051 -0.26,-6.226 -0.78,-10.797 2.7,-20.774 10.52,-30.223 0.82,-1.348 2.43,-2.699 4.3,-3.523 3.79,-1.614 7.57,-2.438 11.05,-2.438 z m -6.74,129.063 c 0.56,3.222 0.3,6.484 1.09,9.711 1.6,7.011 3.78,14.062 5.39,21.074 2.17,8.886 3.78,14.285 5.95,23.472 0.26,1.086 1.87,2.434 2.96,3.524 1.87,-1.914 -0.56,0 -1.09,-2.176 -0.52,-1.348 -1.35,-6.187 0.82,-7.273 -1.34,-4.313 -4.34,-4.875 -3.25,-9.188 0.26,-2.961 -1.61,-5.922 -2.43,-9.187 -0.79,-2.137 -0.26,-4.575 -1.05,-7.012 -0.3,-2.438 -1.09,-5.137 -1.91,-8.098 -0.53,-1.613 -1.09,-3.226 -1.88,-5.136 -1.08,-3.227 -1.34,-6.489 -4.6,-9.711 z m 56.91,-129.063 c 8.87,0 16.17,4.875 20.48,13.5 l 0.26,0.824 c 0.82,1.614 1.61,3.223 2.69,4.575 1.35,1.914 2.17,4.05 2.96,5.96 1.35,3.79 6.74,13.762 7.82,16.989 0.53,1.648 0.83,2.699 0.83,3.785 0,1.351 -0.83,2.961 -2.44,3.789 -2.17,1.086 -5.12,-0.266 -5.65,-2.703 -0.82,-3.785 -5.95,-13.496 -7.56,-17.02 l -2.43,-5.925 c -1.09,-2.961 -2.44,-5.926 -4.84,-9.188 -2.69,-3.488 -3.52,-4.051 -4.34,-4.051 -1.05,0 -2.69,0.563 -5.39,1.614 h -0.52 c -1.87,0.824 -3.52,1.351 -4.05,3 l -0.82,1.351 c -1.05,2.137 -2.13,4.047 -2.4,5.922 l -0.3,0.828 c -0.78,5.922 -1.61,12.41 -1.04,18.598 1.34,14.32 3.48,28.644 5.65,41.054 1.09,8.102 2.69,16.461 4.04,24.563 l 1.61,10.535 c 0.83,3.227 1.88,4.836 4.57,5.399 6.74,1.613 12.69,5.136 18.35,8.363 1.87,1.086 3.52,2.176 5.39,2.961 1.87,1.09 3.52,2.176 4.86,4.051 1.05,1.351 1.05,3.261 0,4.613 -1.08,1.609 -3.52,2.137 -5.13,1.047 l -8.64,-5.66 -2.96,-2.137 c -4.04,-2.699 -8.35,-4.352 -13.22,-5.137 l 1.65,6.75 c 1.61,8.098 3.48,16.195 5.39,24.035 1.87,6.746 3.48,13.496 5.39,19.946 0.79,3 1.88,6.226 2.7,9.449 0.78,3 0.78,5.961 0.52,8.66 0,1.613 -0.52,4.051 -3.52,5.402 -5.09,2.699 -11.04,0.785 -13.74,-4.051 -0.78,-1.351 -1.87,-3.523 -2.69,-5.96 l -1.09,-3.75 -5.65,-18.899 c -3.22,-12.449 -6.48,-25.945 -10.22,-41.844 -1.09,-3.789 -2.7,-5.699 -5.69,-6.75 -5.65,-1.914 -9.7,-5.699 -13.74,-9.449 l -0.26,-0.301 c -1.35,-1.05 -3.78,-3.488 -2.44,-7.273 0.56,-1.09 1.61,-1.875 2.96,-1.875 2.17,0 4.34,1.875 5.69,3.223 2.96,3.527 6.18,5.925 10.22,7.839 h 0.26 c 0,0 -0.26,0 -0.26,-0.265 -0.78,-6.746 -1.87,-13.496 -2.69,-20.547 l -1.88,-12.41 -1.6,-9.711 c -1.35,-9.188 -3,-18.637 -3,-28.086 0,-1.086 0,-2.137 0.3,-3.223 0,-2.176 0,-4.051 -0.3,-6.226 -0.79,-10.797 2.69,-20.774 10.52,-30.223 0.82,-1.348 2.43,-2.699 4.3,-3.523 3.78,-1.614 7.57,-2.438 11.09,-2.438 z m -6.74,129.063 c 0.52,3.222 0.26,6.484 1.04,9.711 1.65,7.011 3.79,14.062 5.39,21.074 2.18,8.886 3.79,14.285 5.96,23.472 0.26,1.086 1.87,2.434 2.95,3.524 1.88,-1.914 -0.52,0 -1.08,-2.176 -0.52,-1.348 -1.35,-6.187 0.82,-7.273 -1.34,-4.313 -4.3,-4.875 -3.25,-9.188 0.3,-2.961 -1.61,-5.922 -2.4,-9.187 -0.82,-2.137 -0.3,-4.575 -1.09,-7.012 -0.26,-2.438 -1.08,-5.137 -1.91,-8.098 -0.52,-1.613 -1.04,-3.226 -1.87,-5.136 -1.08,-3.227 -1.34,-6.489 -4.56,-9.711 z m 64.69,-138.512 h 2.13 c 2.7,0 5.4,0.562 7.83,2.176 l 1.87,0.824 c 5.39,2.961 10.78,6.187 14.82,11.586 1.35,1.914 3,3.789 4.87,5.664 1.09,1.086 2.17,2.437 3.22,3.785 7.3,8.926 13.48,18.898 19.95,29.699 0.83,1.348 0.83,3.262 0.27,4.61 -0.53,1.351 -1.61,2.402 -2.7,2.699 -2.39,0.789 -4.83,-0.297 -5.91,-2.438 -0.53,-1.347 -1.09,-2.437 -1.61,-3.785 l -2.44,-4.875 c -5.65,-9.148 -12.39,-17.808 -18.6,-25.347 -1.61,-2.176 -3.49,-4.051 -5.13,-5.961 l -2.13,-2.137 c -1.62,-1.914 -3.52,-3.262 -5.66,-3.789 -0.56,-0.262 -1.35,-0.563 -2.17,-0.563 -5.13,0.563 -11.61,5.403 -12.96,9.188 -10.78,27.258 14.31,35.922 27.52,56.429 2.96,4.579 4.31,9.715 5.66,14.586 v 0.528 c 0.52,1.347 0.26,2.961 0,4.875 -1.35,6.187 -9.96,14.023 -16.44,15.109 -1.08,0 -2.17,0.262 -3.25,0 l -0.53,-0.262 c -4.31,-0.824 -8.61,-1.914 -12.65,-5.136 -8.09,-6.75 -14.83,-15.676 -19.43,-26.172 -1.61,-4.051 -3.22,-8.102 -4.31,-12.149 l -1.08,-2.699 c -1.88,-5.965 -3.22,-12.976 -4.05,-20.812 -0.78,-12.41 3.78,-23.473 7.56,-31.832 2.96,-5.965 7.27,-10.012 12.66,-11.625 4.04,-1.086 8.08,-2.176 12.69,-2.176 z m -5.69,59.133 c 1.65,7.836 4.04,14.586 7.04,20.808 2.95,6.188 5.91,10.801 8.87,14.848 1.35,1.613 2.96,2.965 5.39,4.051 1.09,0.523 1.91,0.789 2.44,0.789 0.52,0 2.43,0 2.69,-4.84 l -0.53,-2.699 c -1.08,-3.262 -2.16,-6.75 -4.04,-9.746 -4.86,-8.102 -11.87,-15.637 -20.78,-22.649 -0.26,-0.301 -0.52,-0.562 -1.08,-0.562 z m 117.81,-70.4574 c 1.61,0 3.49,0.2617 5.13,1.0899 0.26,0.2617 0.79,0.2617 1.35,0.2617 h 1.61 1.35 c 9.96,1.6133 17.78,6.4848 22.91,14.8478 6.74,11.324 13.48,22.683 19.13,34.57 l 3.52,7.539 1.61,3.785 c 0.26,0.825 1.09,2.7 0.26,4.875 -0.82,1.614 -2.17,2.7 -4.04,2.961 h -0.53 c -1.64,0 -2.99,-0.824 -3.78,-2.437 -0.26,-0.824 -0.56,-1.61 -1.08,-2.699 0,-0.524 -0.26,-1.086 -0.53,-1.348 -0.3,-1.09 -0.82,-2.176 -1.08,-3.227 -1.09,-2.437 -1.91,-4.875 -2.96,-6.75 -5.13,-9.746 -10.52,-19.195 -15.12,-27.296 -2.14,-3.485 -5.09,-6.45 -9.44,-10.235 -0.78,-0.562 -1.35,-0.824 -1.61,-0.824 -0.52,0 -1.08,0.562 -1.34,0.824 -3.79,2.961 -6.48,6.75 -9.44,11.324 -0.26,0.262 -0.26,1.348 -0.53,1.911 v 0.527 l -2.43,31.047 c 0,2.172 -0.26,4.312 0.26,6.222 1.35,7.012 0.56,14.547 -2.43,23.735 -1.87,4.875 -5.09,8.101 -9.43,8.101 -2.7,0 -5.66,-1.351 -8.09,-4.05 -2.13,-2.137 -4.04,-4.575 -5.91,-7.012 l -2.44,-2.438 c -4.83,-5.925 -8.61,-10.8 -11.57,-15.937 l -12.95,-21.598 c 0.26,3.528 0.53,7.051 0.53,10.539 0,0.824 0,1.61 0.29,2.699 l 0.26,1.348 c 0,0.266 0,0.563 0.27,1.09 1.34,3.785 1.87,7.836 2.17,11.621 0.26,1.352 0.52,2.703 0.52,4.051 0.53,2.699 1.09,5.101 1.35,7.801 0.82,4.347 1.35,8.398 1.87,12.711 0.56,4.046 0.83,7.011 -0.79,8.886 -1.6,1.91 -4.04,2.438 -8.34,2.699 h -3.26 c -5.65,0 -6.74,-2.136 -8.35,-6.187 l -0.82,-2.176 c -0.79,-1.875 -1.35,-3.484 -1.35,-5.137 0.3,-2.96 -0.26,-5.921 -0.52,-8.886 -0.53,-2.438 -0.83,-4.61 -0.83,-7.012 -0.26,-4.609 -0.78,-9.184 -1.35,-13.496 -0.52,-5.137 -1.04,-10.273 -1.34,-15.414 0,-2.137 -0.26,-4.047 -0.53,-6.184 0,-1.914 -0.26,-3.789 -0.52,-5.402 0,-2.699 -0.3,-5.398 0.52,-8.098 v -0.824 c 0.83,-3.523 1.61,-7.574 5.13,-10.273 1.61,-1.614 3.78,-2.137 5.92,-2.137 2.95,0 5.95,1.609 7.56,4.574 l 21,36.445 c 1.91,3.524 4.35,7.575 7.83,11.887 v -17.551 c 0,-1.609 -0.26,-3.523 -0.26,-5.136 -0.27,-3.785 -0.27,-7.836 0.26,-11.586 2.17,-11.098 6.21,-21.598 11.6,-31.047 3.78,-6.2228 7.83,-7.5744 10.78,-7.5744 z m -14.04,22.9494 c -0.26,3.523 -1.6,6.484 -1.87,9.449 -0.52,7.274 -0.52,14.586 -1.08,21.859 -0.79,9.45 -0.53,14.848 -1.35,24.297 0,1.352 1.09,2.7 1.61,4.313 2.43,-1.352 -0.26,-0.262 -0.26,-2.399 0,-1.351 0.56,-6.488 2.95,-6.75 -0.26,-4.613 -2.69,-5.961 -0.52,-9.75 1.35,-2.699 0.26,-6.187 0.52,-9.449 0,-2.398 1.09,-4.574 1.09,-7.012 0.56,-2.437 0.56,-5.398 0.56,-8.359 0,-1.613 0,-3.527 -0.3,-5.402 0,-3.524 0.83,-6.746 -1.35,-10.797 z m 10.79,-0.262 -1.61,1.086 c -0.27,5.102 -0.79,10.801 -1.35,15.899 l 4.04,-15.637 c 0,-0.262 -0.78,-0.824 -1.08,-1.348 z m 172.51,65.055 c -1.61,1.347 -4.05,1.086 -5.65,-0.824 -0.53,-0.528 -1.09,-1.614 -1.35,-2.403 -6.18,-13.496 -12.39,-24.597 -19.39,-34.308 -0.83,-1.086 -1.61,-2.137 -2.17,-3.223 l -1.61,-2.437 c -1.09,-1.352 -1.88,-2.961 -2.96,-4.313 -2.17,-3.523 -4.61,-7.012 -7.3,-9.711 -2.14,-2.437 -4.31,-4.051 -6.74,-5.398 -0.79,-0.301 -1.05,-0.301 -1.35,-0.301 -4.83,3.262 -8.61,5.961 -9.13,11.359 -0.57,4.051 -1.09,8.364 -1.91,12.676 l -1.35,10.797 c -0.26,2.176 0,4.312 1.08,6.488 0.53,1.086 1.09,2.176 1.61,3.223 l 1.91,3.265 c 5.1,10.235 8.09,19.161 9.96,27.782 0.27,1.351 0.53,2.699 0.82,4.05 l 0.79,3 2.44,12.149 3.22,14.848 c 0.56,2.402 0.56,4.836 0.82,7.273 0.26,1.875 0.26,3.527 0.52,5.137 0.3,2.703 1.09,5.402 1.65,7.84 1.05,5.921 2.4,11.847 2.13,18.336 -0.26,2.437 -0.26,4.871 -0.26,7.308 0.26,3.227 0.26,6.449 0,9.977 -0.26,2.699 -0.52,5.922 -3.22,8.097 l -1.08,0.825 c -2.44,2.136 -5.13,4.312 -8.65,5.101 -6.18,1.348 -11.31,-0.789 -15.09,-6.75 -5.65,-8.625 -9.43,-18.336 -11.57,-28.609 l -1.34,-7.836 c -1.09,-5.403 -1.91,-10.801 -3.26,-15.899 -4.05,-16.761 -5.92,-29.433 -5.39,-41.847 v -1.348 c -3.78,2.961 -7.53,3.223 -12.66,0.785 -3.25,-1.609 -6.21,-3.222 -8.35,-6.484 l -2.69,-3.488 c -1.35,-2.176 -2.99,-4.051 -4.35,-6.223 -4.04,-7.277 -7.52,-15.938 -10.48,-26.738 -4.6,-14.848 -0.82,-28.871 10.48,-39.407 6.48,-5.925 14.31,-6.187 21.05,-0.523 2.95,2.699 5.65,5.398 8.08,8.359 l 0.83,0.825 5.65,5.925 0.52,0.825 c 0,-0.301 0.26,-0.825 0.26,-1.649 1.65,-6.449 5.7,-11.324 9.44,-15.113 3.52,-3.485 7.3,-5.137 11.6,-5.137 2.44,0 4.57,0.301 7.27,1.352 7.56,2.699 13.48,7.312 17.26,13.234 l 2.17,3.262 c 1.87,2.965 3.78,5.664 5.65,8.363 7,9.973 13.22,20.773 19.13,32.922 l 2.7,5.137 c 0.56,1.351 1.34,2.699 1.91,4.05 1.05,1.875 0.52,4.047 -1.65,5.399 z m -63.87,103.414 c 0.52,0.523 1.09,0.785 1.87,1.051 l 0.83,-0.266 c 0,-0.523 -0.53,-0.785 -0.27,-1.348 -0.56,-0.523 -0.82,-0.789 -1.08,-1.351 -0.53,-0.262 -0.83,-0.524 -1.09,-1.086 l -0.52,1.648 h 0.52 c 0,0.528 -0.26,0.789 -0.26,1.352 z m -0.52,-112.34 c 0.26,2.699 0.52,5.402 0.52,7.574 0,7.278 1.09,14.324 2.17,21.336 l 1.61,13.238 c 0.53,4.575 1.87,9.149 3.48,12.934 2.17,5.664 3.78,11.625 4.87,19.16 2.43,12.977 4.87,22.949 7.82,31.871 l 1.35,2.965 c 0.79,-8.101 0.53,-15.637 -0.56,-23.211 -0.52,-3.785 -1.05,-7.836 -1.87,-11.886 -0.82,-7.274 -1.87,-14.586 -3.22,-21.598 -1.09,-5.399 -2.43,-10.535 -3.52,-15.637 -0.82,-2.437 -1.35,-4.875 -1.87,-7.308 l -0.83,-4.051 c -1.34,-9.711 -5.39,-18.336 -9.95,-27.262 z m -1.91,90.18 c 0.26,-0.789 0,-1.352 -0.26,-2.137 -3.22,-3.789 -4.31,-7.836 -2.44,-12.449 0,-0.789 -0.26,-1.875 -1.08,-2.399 -2.7,-2.175 -2.96,-4.875 -2.14,-7.839 0.26,-1.348 -0.26,-2.438 -0.56,-3.786 -1.35,-2.437 -2.7,-5.136 -1.61,-8.363 0,-0.562 -0.26,-1.086 -0.26,-1.609 -0.83,-2.703 -1.09,-5.703 -1.61,-8.403 0,-0.785 0.26,-1.609 -0.26,-2.398 -0.3,-0.301 -1.09,-0.563 -1.35,-0.824 -0.3,0.261 -0.82,0.824 -0.82,1.086 0.26,2.136 0.26,4.05 0.52,6.187 h -0.26 c 0.82,4.875 1.91,10.012 2.69,15.149 l 6.48,29.398 c 0.82,4.348 2.43,8.922 3.78,13.496 -0.26,0.563 0.52,1.09 0.79,1.352 0.82,-0.262 1.91,-0.789 2.43,-1.614 0,-0.261 -0.52,-0.785 -0.79,-1.086 -1.64,-0.789 -2.43,-1.351 0.53,-1.875 0,0 0,-0.824 -0.26,-1.089 -2.96,-3.223 -4.87,-6.746 -3.52,-10.797 z m -14.26,-123.364 c -3.52,-5.66 -8.09,-11.058 -14.31,-17.023 -0.26,-0.262 -0.52,-0.523 -0.52,-0.523 l -0.3,0.261 c -0.52,0.528 -1.35,0.825 -1.87,1.352 -0.53,0.262 -1.09,0.523 -1.35,0.824 -0.53,0.524 -1.08,0.785 -1.08,1.875 v 0.524 c -0.53,3.527 -0.79,6.75 -0.53,10.011 0.79,12.676 2.13,27.262 7,41.848 0.53,1.348 1.09,2.961 1.87,4.574 0.3,0.563 0.83,1.086 1.09,1.91 0.26,0.789 0.82,1.352 1.91,1.875 h 0.26 c 0.26,0 0.52,0 0.52,0 l 1.61,-5.398 c 0.3,-1.875 0.83,-3.789 1.09,-5.664 0.82,-3.785 1.61,-7.309 2.69,-10.797 1.35,-4.613 1.92,-9.188 2.44,-14.063 l 0.82,-6.183 c 0.26,-1.914 0,-3.528 -1.34,-5.403 z m -24,11.063 -0.83,1.613 -0.26,-2.136 -0.82,0.523 c -0.26,0.262 -0.26,0.523 0,0.824 v 0.528 c 0.3,0 0.82,0 1.08,0.261 0.27,0 0.56,-0.261 0.83,-0.261 0.26,-0.528 0.26,-0.829 0.26,-1.09 -0.26,0 -0.26,-0.262 -0.26,-0.262 z m -3.26,-19.16 -0.79,-0.824 v 2.171 l -0.26,-2.171 c -0.56,0.261 -0.82,0.261 -0.82,0.824 -0.27,0.262 -0.27,0.523 -0.27,0.785 0,0.301 0.53,0.562 0.79,0.562 0.3,0 0.3,0 0.3,0 h 0.26 c 0.26,-0.261 0.79,-0.562 0.79,-1.085 z M 1587.29,22.125 c 1.61,0 3.48,0.8242 4.83,1.6484 4.04,2.4024 5.95,6.1875 5.69,10.8008 0,4.5742 0.53,9.1485 1.05,14.0235 l 0.82,7.0117 c 1.09,11.6211 3.52,23.7695 8.09,37.7929 7,22.4257 14.56,46.1607 24,69.1057 l 1.61,3.789 c 1.34,3.262 2.95,6.75 4.04,10.273 2.69,8.364 7,16.2 12.95,24.825 2.14,3.261 4.83,5.96 8.35,8.359 0.26,0.301 0.79,0.301 1.09,0 0,0 0,-0.524 0,-1.051 v -1.086 c -1.91,-13.234 -4.61,-24.558 -8.09,-34.832 -2.7,-7.84 -5.95,-17.023 -8.09,-26.472 -1.64,-6.75 -3.78,-12.676 -6.21,-17.813 -1.09,2.438 -1.35,4.875 -0.82,7.012 0.29,1.351 0.56,3 0.56,4.613 0,2.438 -1.61,4.313 -3.78,4.574 h -0.53 c -1.91,0 -3.52,-1.351 -4.34,-3.226 -0.26,-1.086 -0.79,-2.172 -0.79,-3.524 -0.26,-6.187 1.09,-12.148 3.22,-17.547 2.44,-5.398 5.95,-6.488 8.35,-6.488 1.65,0 3.26,0.563 5.13,1.352 6.74,3.523 11.35,8.097 14.04,13.797 0.52,1.613 1.35,2.96 2.4,4.574 l 0.56,1.09 c 4.3,8.097 8.35,16.984 12.65,28.082 1.09,2.699 1.61,5.664 2.43,8.625 0.53,2.699 1.35,5.136 2.18,7.574 3.48,8.625 4.04,17.547 4.56,26.172 0.53,6.75 -5.13,14.847 -11.86,17.023 -5.4,1.875 -10.79,0.789 -16.18,-3 -5.39,-4.051 -9.43,-8.363 -12.65,-13.5 -4.05,-6.449 -9.44,-15.371 -13.48,-25.082 -3.78,-9.449 -7.56,-19.16 -10.78,-28.348 l -4.61,-11.886 c -2.69,-7.012 -4.82,-14.024 -7,-21.074 l -3.22,-9.973 c -1.08,-3.524 -2.43,-7.274 -3.78,-10.797 v 12.41 2.438 c 0,2.961 0,5.66 0.53,8.359 3.25,18.113 5.95,36.711 8.38,54.559 l 1.05,8.359 c 0.3,2.141 0.82,4.051 1.09,5.926 0.56,2.176 0.82,4.312 1.08,6.75 0.83,4.312 -0.52,8.66 -3.52,12.148 -1.34,1.348 -2.95,2.176 -4.83,2.176 l -2.69,-0.266 c -0.82,-0.297 -1.61,-0.297 -2.43,-0.297 h -0.53 c -0.82,0 -1.35,-0.265 -1.65,-0.527 -0.26,0 -0.52,-0.262 -0.78,-0.262 -0.83,-0.562 -1.61,-1.086 -2.43,-2.175 -1.09,-2.137 -1.88,-4.313 -2.18,-6.184 -2.69,-11.102 -5.39,-22.16 -7.79,-33.223 -0.82,-3.226 -1.34,-6.488 -1.91,-9.711 -0.78,-3.789 -1.34,-7.574 -2.13,-11.363 -2.43,-9.972 -3.26,-20.246 -3.78,-28.871 -0.56,-8.926 -0.56,-18.074 -0.82,-26.7343 V 80.7305 c -0.27,-11.625 -0.53,-22.1602 1.08,-32.9571 0.26,-1.0507 0.26,-2.4023 0.26,-3.75 -0.52,-4.0507 0.57,-7.5742 1.61,-11.1015 l 0.83,-2.6992 c 0.52,-2.6993 2.43,-4.5743 4.04,-5.9219 1.09,-1.0899 2.7,-2.1758 5.13,-2.1758 z m 59.3,117.438 c 0.79,3.261 0.53,6.75 1.35,9.75 l 6.48,20.769 c 2.39,8.926 4.3,14.324 6.74,23.211 0.52,1.352 1.87,2.437 2.95,3.523 1.87,-2.171 -0.26,0 -1.08,-2.171 -0.53,-1.09 -1.61,-6.188 0.52,-7.274 -1.61,-4.051 -4.57,-4.613 -3.48,-8.926 0.26,-2.961 -2.17,-6.187 -2.96,-9.187 -0.56,-2.137 -0.3,-4.574 -1.08,-7.012 -0.57,-2.437 -1.35,-5.137 -2.44,-8.098 -0.52,-1.613 -1.34,-3.226 -1.87,-4.835 -1.35,-3.266 -1.65,-6.489 -5.13,-9.75 z m 71.17,-38.586 c 3.74,0 7.79,1.351 11.83,4.312 4.61,2.965 8.39,7.012 11.61,11.625 4.04,6.188 8.34,12.676 11.86,19.949 l 0.26,0.825 c 0.83,1.085 1.35,2.437 1.62,3.785 1.35,5.136 2.95,10.539 5.65,15.636 0,0.301 0.3,0.563 0.3,1.09 0.52,2.699 -0.56,4.61 -2.7,5.66 -0.56,0.301 -1.08,0.301 -1.64,0.301 -2.14,0 -3.23,-1.652 -3.49,-2.176 -2.43,-3.222 -3.52,-7.273 -4.3,-10.273 -2.7,-11.848 -9.44,-21.598 -16.17,-30.223 l -2.7,-3.222 c -3,-3 -5.95,-3.528 -9.43,-1.914 -1.65,0.824 -3.26,1.613 -4.87,2.175 -2.43,0.786 -4.04,2.438 -5.13,4.575 l -0.52,1.613 c -0.56,1.648 -1.35,3 -1.62,4.348 -1.9,7.539 -2.43,15.898 -2.16,25.085 0.26,2.7 0.26,5.661 0.52,8.098 l 0.3,3.262 c -0.56,10.5 0.26,20.512 1.05,30.222 0,0 0.29,0 0.29,-0.261 1.88,-1.352 4.31,-0.824 5.92,0.785 l 0.53,0.828 c 0.56,0.523 1.34,1.609 1.91,2.699 0.78,1.614 1.87,3.223 2.95,4.875 2.7,4.313 5.39,9.149 7.57,14.024 1.6,4.047 3.48,8.359 5.91,12.148 6.21,8.36 9.69,17.809 13.21,27.258 4.57,12.41 8.09,25.91 10.23,40.496 0.82,4.313 0.82,9.188 0.56,15.41 -0.27,2.137 -1.35,4.051 -3.26,5.403 -1.87,1.347 -4.83,2.96 -8.35,2.699 -1.09,-0.301 -1.87,-0.301 -2.7,-0.301 -3.78,-0.527 -7.52,-0.789 -11.04,-2.137 -7.26,-2.965 -13.74,-8.363 -18.04,-15.676 -1.35,-1.875 -2.43,-3.785 -3.26,-5.66 -0.78,-1.613 -1.61,-2.961 -2.69,-4.574 0.26,-1.351 0.82,-2.437 1.61,-2.699 -1.06,-4.352 -4.05,-5.137 -2.4,-9.449 0.52,-3 -1.35,-6.227 -1.91,-9.188 -0.52,-2.437 0,-4.875 -0.52,-7.312 0,-2.399 -0.57,-5.399 -1.35,-8.098 -0.27,-1.613 -0.82,-3.488 -1.35,-5.398 -0.82,-3.227 -1.08,-6.45 -4.05,-9.977 0.53,3.227 0,6.488 0.27,9.711 1.34,7.012 2.96,14.324 4.04,21.336 1.09,6.75 2.17,11.324 2.96,16.723 -2.43,-3.75 -4.04,-7.797 -4.83,-11.848 -0.83,-4.875 -2.17,-9.75 -3.52,-14.063 -4.57,-16.722 -7,-34.007 -9.7,-50.73 l -0.82,-7.051 c -1.09,-6.449 -1.35,-12.933 -1.61,-18.598 -0.26,-2.171 -0.52,-4.046 -0.52,-6.222 -0.57,-4.875 -1.09,-9.711 -0.3,-14.848 0.3,-1.875 0,-3.789 0,-5.926 l -0.27,-2.175 c -0.52,-9.711 -1.08,-19.985 2.7,-29.957 2.69,-7.313 7.56,-13.239 11.87,-18.375 0.82,-1.086 1.87,-1.614 2.7,-1.875 l 0.52,-0.262 c 0.82,-0.563 1.91,-1.086 2.69,-1.348 l 4.34,-2.437 c 2.97,-1.614 6.18,-2.703 9.44,-2.703 z m -8.91,103.117 c 0.26,2.699 0.53,5.66 1.09,8.359 0.78,8.926 2.69,20.813 6.47,32.137 1.88,4.871 3.22,10.008 4.57,14.848 l 0.26,1.613 c 0.83,2.996 1.61,5.961 2.44,8.922 l 2.43,8.925 c 2.69,10.797 8.87,19.946 19.65,30.485 0.56,0.262 1.09,0.824 1.91,0.824 0.26,0 0.26,0 0.53,0 h 0.56 c 0,0 0,-0.262 0.26,-0.824 0.52,-2.141 0.26,-4.313 -0.26,-7.012 -0.56,-2.437 -1.09,-4.875 -1.35,-7.277 -0.82,-4.61 -1.91,-9.184 -3,-13.797 -3.21,-14.547 -8.34,-27.785 -15.08,-40.195 -1.35,-2.438 -2.7,-4.875 -4.04,-7.575 -3.22,-5.664 -6.74,-11.625 -9.44,-18.074 -1.08,-2.437 -2.69,-4.613 -4.04,-7.047 -0.79,-1.051 -1.61,-2.14 -2.13,-3.488 z m -0.53,34.832 c -0.55,0.262 -1.08,1.086 -1.08,1.351 0.53,5.137 1.35,10.536 2.14,15.672 0,-5.398 0.3,-10.535 0.3,-15.937 0,-0.559 -1.09,-0.824 -1.36,-1.086 z m 153.35,-75.067 c -1.87,0.563 -3.74,-0.261 -4.57,-1.875 -0.82,-1.613 -1.35,-2.961 -1.61,-4.05 -1.61,-8.098 -4.86,-15.934 -8.08,-23.473 -0.57,-1.91 -1.35,-3.523 -2.18,-5.398 -3.78,-9.75 -12.12,-15.411 -17.52,-3.524 -4.82,10.797 2.7,30.785 6.22,40.758 2.13,6.488 4.3,13.234 5.13,20.808 0.52,4.051 -0.3,8.102 -2.43,11.852 -1.09,2.172 -2.7,3.262 -4.61,3 l -1.05,-0.301 c -12.95,-2.699 -15.91,-21.597 -21.04,-31.574 -2.17,-3.785 -4.04,-7.836 -5.65,-11.883 -3.52,-8.101 -8.91,-14.586 -15.91,-19.426 -1.35,-1.085 -2.96,-1.347 -4.57,-1.347 -2.69,0 -5.39,1.347 -6.48,3.785 -5.65,9.977 -5.95,17.812 -4.04,28.609 1.87,10.539 6.18,22.95 -7.56,25.649 -1.09,0.261 -2.43,0.261 -3.49,0.785 -2.43,1.09 -5.12,-0.524 -6.47,-3.223 l -1.09,-2.699 c -1.35,-2.961 -2.69,-6.227 -3.51,-9.449 -2.7,-8.926 -2.4,-18.074 -1.88,-25.121 1.35,-17.25 18.87,-38.848 37.48,-27 13.21,8.101 21.3,17.551 25.04,29.172 l 0.3,0.265 c -0.3,-2.437 -0.56,-4.84 -1.35,-7.277 -1.64,-5.399 -2.17,-10.797 -1.9,-15.109 v -3.262 c -0.27,-1.613 -0.27,-2.961 0,-4.313 0.26,-10.273 4.86,-17.285 14.3,-21.074 1.87,-0.523 3.48,-1.047 5.13,-1.047 1.87,0 3.48,0.524 5.09,1.348 5.95,3.226 11.34,7.539 15.65,12.676 1.08,1.347 1.61,2.699 1.87,4.047 l 0.56,1.351 c 0.52,1.086 0.78,2.176 1.35,3.223 l 2.43,5.402 c 3.22,7.309 5.91,14.848 8.61,22.422 l 0.82,3.223 c 0.27,1.914 -1.08,3.527 -2.99,4.05 z m 18.08,-68.0192 c 3.48,0 7,0.5274 10.52,1.3516 11.31,2.6992 17.22,11.3246 21,18.6366 0.27,0.785 0.83,1.348 1.09,2.137 0,0.562 0.26,1.348 0.52,1.91 4.35,7.277 6.22,15.113 5.96,24.035 -0.27,3.488 -0.56,7.801 -2.44,11.852 -4.3,8.922 -8.91,16.758 -13.74,23.508 -1.08,1.875 -2.43,3.488 -3.78,5.398 -2.17,2.965 -4.3,6.187 -6.47,9.449 -1.35,1.613 -2.44,3.227 -2.7,4.574 -0.78,2.965 -2.13,5.664 -3.22,8.102 -0.56,1.613 -1.08,2.961 -1.61,4.312 l -2.43,6.485 c -2.17,7.574 0.78,14.324 7.52,17.812 3,1.649 5.96,1.086 8.65,-1.05 2.7,-2.176 2.43,-4.875 2.13,-6.75 -0.52,-1.348 -0.78,-2.7 -1.34,-4.047 l -0.79,-2.176 -0.26,-0.824 -0.82,-3.227 c -0.27,-1.348 0.52,-2.961 1.34,-3.523 1.61,-1.352 3.78,-1.051 5.13,0.562 4.04,5.399 5.92,11.324 5.39,17.547 -0.26,4.313 -1.61,7.539 -3.52,9.973 -1.87,2.437 -4.3,4.613 -7,6.226 -6.47,4.051 -12.39,4.313 -18.34,1.348 -5.39,-2.699 -9.7,-7.012 -13.48,-13.234 -1.05,-1.614 -1.87,-3.524 -2.69,-5.661 -2.14,-7.839 -1.62,-15.937 1.64,-24.562 1.87,-4.609 4.04,-8.66 6.18,-12.711 l 4.31,-8.098 c 2.69,-6.187 6.21,-11.886 9.43,-17.55 2.7,-4.575 5.39,-9.184 7.82,-14.024 h -1.61 l 2.96,-2.961 c -0.26,-1.648 0,-3.262 0,-4.613 0.26,-0.262 0.26,-0.785 0.26,-1.086 1.09,-7.012 -0.52,-14.023 -4.82,-22.121 -0.57,-1.09 -1.61,-2.438 -2.96,-3.527 -1.65,-1.61 -3.78,-2.961 -5.69,-4.309 -1.05,-0.527 -1.87,-1.09 -2.7,-1.352 -5.09,-2.437 -10.22,-2.136 -15.87,0.563 -5.13,2.398 -7.57,6.75 -7.57,12.41 0.27,5.137 1.35,9.977 3.52,14.285 l 0.53,0.828 -0.53,1.086 c -1.08,2.137 -2.69,4.836 -5.13,4.836 -4.04,0 -5.39,-5.922 -5.95,-11.058 -1.87,-5.664 -2.13,-11.063 -0.52,-16.2 1.08,-3.488 2.69,-6.75 4.3,-9.976 l 0.83,-1.61 c 0.52,-1.351 1.61,-3 2.95,-4.05 1.09,-0.563 2.18,-1.086 2.96,-1.914 3.26,-1.875 6.48,-4.0473 10.26,-5.1372 3.22,-1.3476 7,-1.875 10.78,-1.875 z M 2034.18,0 c 2.44,0 4.87,0.527344 7.3,1.61328 5.92,2.4375 10.22,7.01172 13.22,13.50002 5.09,11.3594 7.78,22.9453 9.96,34.0078 1.87,10.0117 2.17,18.375 0.52,26.4727 -0.26,1.875 -0.52,3.5234 -1.05,5.3984 -0.82,5.1367 -1.91,10.5391 -3.52,15.9375 -2.69,8.6253 -5.65,16.9843 -9.69,25.9103 -0.56,1.609 -1.09,3.223 -1.61,4.574 5.91,1.91 11.04,5.137 15.87,8.399 1.65,1.05 3,2.136 4.61,2.96 4.82,2.965 8.6,7.012 11.86,11.586 2.4,3.789 4.83,7.84 7.26,11.887 l 3.23,5.137 c 0.82,1.613 1.64,3.527 1.34,5.926 0,0 -0.26,2.437 -2.13,3 -0.82,0.261 -2.7,0.523 -3.78,0 -1.09,-0.563 -2.17,-1.914 -2.44,-3 -1.87,-5.102 -4.83,-9.711 -7.82,-14.286 l -1.35,-2.175 c -5.09,-8.625 -12.91,-14.285 -23.43,-17.813 6.74,14.024 12.13,28.875 17.52,42.934 l 3.22,9.449 c 1.64,3.789 2.69,7.836 3.25,11.887 0.53,2.699 -0.82,5.101 -3.52,5.925 -1.34,0.825 -2.95,1.086 -4.56,1.348 -6.22,1.09 -8.91,-2.699 -10.26,-5.137 l -1.35,-2.437 c -0.52,-1.348 -1.35,-2.699 -2.13,-4.047 -1.91,-3.227 -3.78,-7.012 -5.13,-11.062 -2.17,-5.926 -4.61,-11.586 -7,-16.985 -3.26,-7.312 -6.22,-13.801 -8.91,-19.461 -4.05,-8.101 -8.91,-16.199 -18.05,-21.035 -0.56,-0.301 -1.08,-0.301 -1.08,-0.301 -0.26,0 -0.26,0.563 -0.26,1.086 v 2.699 l 0.26,1.352 c 0.52,9.449 3.22,18.898 5.91,27.82 l 0.56,2.141 c 1.88,5.961 4.31,11.883 6.45,17.547 l 2.43,6.484 c 1.08,3.266 2.96,6.227 5.12,9.449 v -1.609 c 0,-3.789 0,-7.012 -1.08,-10.273 -0.53,-1.051 -0.79,-2.403 -0.79,-4.051 0.26,-1.352 1.35,-2.399 2.14,-3.227 1.35,-1.086 3.52,-1.086 5.13,0.828 1.35,1.348 2.43,3.485 2.69,5.661 1.09,5.136 1.87,11.324 1.87,17.546 -0.26,5.137 -2.69,9.45 -4.56,12.676 -1.35,2.172 -3.52,3.262 -6.22,3.524 -3.48,0.261 -6.44,-0.563 -8.61,-2.176 -1.87,-1.61 -4.04,-3.223 -5.65,-5.399 -7.3,-7.535 -12.13,-16.984 -16.74,-25.91 -1.61,-2.699 -2.95,-5.66 -4.56,-8.359 -0.26,-0.563 -0.26,-0.828 -0.26,-1.09 -3.26,-9.711 -5.66,-19.723 -7,-29.172 -0.57,-3.484 -0.83,-7.012 -0.83,-9.972 0,-4.313 1.61,-8.625 5.13,-12.149 3.78,-4.051 9.43,-6.488 14.82,-6.488 3.79,0 6.74,1.09 9.18,3.262 1.04,0.789 1.87,1.613 3.22,2.136 0,-0.523 -0.27,-1.347 -0.83,-2.433 v -0.266 c -1.87,-5.398 -2.96,-11.059 -3.74,-16.461 l -1.09,-6.746 c -1.34,-6.75 -2.43,-13.7617 -2.43,-20.7735 0.26,-5.1367 -0.52,-10.2734 -1.87,-16.1992 -0.3,-2.1758 -0.56,-4.0508 -0.56,-6.4883 l -0.27,-1.9101 V 39.4102 c 0,-1.875 0.27,-3.4883 0.27,-5.3985 0,-5.9258 0,-11.8867 1.91,-18.0742 1.87,-6.48828 5.91,-11.0625 12.39,-14.32422 C 2029.09,0.527344 2031.79,0 2034.18,0 Z m 7.57,13.5 c -0.53,0 -1.35,0.2617 -2.18,0.5234 -1.61,0.8282 -2.69,1.9141 -3.74,4.0508 -2.17,4.6133 -3.26,9.75 -3.26,14.8477 v 4.6133 1.875 c 0.27,4.3125 0.82,8.9257 1.09,13.2343 1.08,12.6758 2.17,25.6485 4.3,38.0586 v 0.5625 c 0.27,0.5274 0.27,1.3516 0.27,2.1367 0,5.6641 1.64,10.8007 3.25,16.1997 0.79,1.914 1.35,3.789 1.88,5.664 l 1.08,-2.137 c 1.61,-3.789 3.22,-7.574 4.57,-11.625 2.99,-8.3634 4.34,-16.9845 5.95,-25.9102 l 0.52,-4.0508 c 1.35,-7.5742 0.27,-14.586 -1.6,-22.9453 -2.18,-8.625 -4.31,-18.0743 -7.83,-26.7344 -1.09,-2.4375 -1.87,-4.5742 -2.96,-6.4883 -0.82,-1.875 -1.34,-1.875 -1.34,-1.875 z m -17.27,94.754 -0.52,1.609 h 0.26 c 0,0.563 -0.26,0.828 -0.26,1.352 0.26,0.301 1.09,0.562 1.61,1.086 l 0.82,-0.262 -0.3,-1.086 c -0.26,-0.527 -0.52,-1.09 -0.78,-1.351 -0.26,-0.262 -0.56,-0.786 -0.83,-1.348 z m -5.91,-65.3204 c -0.56,0.2617 -0.82,0.7891 -1.09,0.7891 0.27,2.1757 -0.26,4.0507 -0.26,5.9609 h -0.26 c 0.26,4.5742 0.79,9.4492 1.05,14.2852 1.08,9.1875 1.91,18.375 2.99,27.5625 0.27,4.3085 1.35,8.6207 2.14,12.6717 -0.26,0.824 0.26,1.352 0.82,1.613 0.52,-0.261 1.87,-0.527 2.43,-1.351 0,-0.262 -0.3,-0.785 -0.56,-1.051 -1.87,-1.086 -2.43,-1.348 0.56,-1.648 0,0 0,-0.789 -0.3,-1.051 -2.13,-3.2619 -3.74,-6.7502 -2.13,-10.2736 0.52,-0.5234 0.26,-1.3476 0,-1.875 -2.69,-4.0469 -3.26,-7.8359 -0.82,-11.8867 0,-0.5625 0,-1.9102 -0.79,-2.1719 -2.43,-2.4375 -2.43,-5.1367 -1.08,-7.539 0.26,-1.3477 0,-2.1758 -0.27,-3.5235 -0.82,-2.4375 -1.91,-5.1367 -0.82,-7.8359 0.26,-0.5274 0,-1.0899 0,-1.6133 -0.26,-2.6992 -0.26,-5.1367 -0.52,-7.8359 0.26,-0.5274 0.26,-1.6133 0,-2.1368 -0.3,-0.5625 -0.83,-0.8281 -1.09,-1.0898 z m 179.51,120.9254 c -1.87,0.563 -3.78,-0.261 -4.56,-1.875 -0.83,-1.613 -1.35,-2.961 -1.65,-4.05 -1.61,-8.098 -4.83,-15.934 -8.09,-23.473 -0.52,-1.91 -1.35,-3.523 -2.13,-5.398 -3.78,-9.75 -12.13,-15.411 -17.52,-3.524 -4.87,10.797 2.69,30.785 6.17,40.758 2.18,6.488 4.35,13.234 5.13,20.808 0.57,4.051 -0.26,8.102 -2.43,11.852 -1.05,2.172 -2.7,3.262 -4.57,3 l -1.08,-0.301 c -12.92,-2.699 -15.91,-21.597 -21.01,-31.574 -2.17,-3.785 -4.04,-7.836 -5.68,-11.883 -3.49,-8.101 -8.88,-14.586 -15.88,-19.426 -1.35,-1.085 -2.99,-1.347 -4.6,-1.347 -2.7,0 -5.39,1.347 -6.48,3.785 -5.65,9.977 -5.91,17.812 -4.04,28.609 1.91,10.539 6.21,22.95 -7.53,25.649 -1.08,0.261 -2.43,0.261 -3.52,0.785 -2.43,1.09 -5.13,-0.524 -6.47,-3.223 l -1.05,-2.699 c -1.35,-2.961 -2.7,-6.227 -3.52,-9.449 -2.7,-8.926 -2.44,-18.074 -1.87,-25.121 1.34,-17.25 18.87,-38.848 37.43,-27 13.22,8.101 21.31,17.551 25.08,29.172 l 0.27,0.265 c -0.27,-2.437 -0.53,-4.84 -1.35,-7.277 -1.61,-5.399 -2.13,-10.797 -1.87,-15.109 v -3.262 c -0.26,-1.613 -0.26,-2.961 0,-4.313 0.26,-10.273 4.83,-17.285 14.26,-21.074 1.91,-0.523 3.52,-1.047 5.13,-1.047 1.91,0 3.52,0.524 5.13,1.348 5.92,3.226 11.31,7.539 15.65,12.676 1.05,1.347 1.61,2.699 1.87,4.047 l 0.52,1.351 c 0.57,1.086 0.83,2.176 1.35,3.223 l 2.44,5.402 c 3.25,7.309 5.95,14.848 8.64,22.422 l 0.79,3.223 c 0.26,1.914 -1.08,3.527 -2.96,4.05 z m 23.74,-59.394 h 2.13 c 2.7,0 5.39,0.562 7.83,2.176 l 1.87,0.824 c 5.39,2.961 10.78,6.187 14.82,11.586 1.35,1.914 3,3.789 4.87,5.664 1.09,1.086 2.17,2.437 3.22,3.785 7.3,8.926 13.48,18.898 19.96,29.699 0.82,1.348 0.82,3.262 0.26,4.61 -0.53,1.351 -1.61,2.402 -2.7,2.699 -2.39,0.789 -4.83,-0.297 -5.91,-2.438 -0.53,-1.347 -1.09,-2.437 -1.62,-3.785 l -2.42,-4.875 c -5.66,-9.148 -12.4,-17.808 -18.61,-25.347 -1.61,-2.176 -3.48,-4.051 -5.13,-5.961 l -2.14,-2.137 c -1.61,-1.914 -3.52,-3.262 -5.65,-3.789 -0.56,-0.262 -1.35,-0.563 -2.17,-0.563 -5.13,0.563 -11.61,5.403 -12.95,9.188 -10.78,27.258 14.3,35.922 27.51,56.429 2.96,4.579 4.31,9.715 5.65,14.586 v 0.528 c 0.53,1.347 0.27,2.961 0,4.875 -1.34,6.187 -9.95,14.023 -16.43,15.109 -1.08,0 -2.17,0.262 -3.26,0 l -0.52,-0.262 c -4.3,-0.824 -8.61,-1.914 -12.65,-5.136 -8.09,-6.75 -14.83,-15.676 -19.44,-26.172 -1.61,-4.051 -3.21,-8.102 -4.3,-12.149 l -1.09,-2.699 c -1.87,-5.965 -3.22,-12.976 -4.04,-20.812 -0.78,-12.41 3.78,-23.473 7.56,-31.832 2.96,-5.965 7.27,-10.012 12.66,-11.625 4.04,-1.086 8.08,-2.176 12.69,-2.176 z m -5.69,59.133 c 1.65,7.836 4.04,14.586 7.04,20.808 2.96,6.188 5.91,10.801 8.87,14.848 1.35,1.613 2.96,2.965 5.39,4.051 1.09,0.523 1.91,0.789 2.43,0.789 0.53,0 2.44,0 2.7,-4.84 l -0.52,-2.699 c -1.09,-3.262 -2.18,-6.75 -4.05,-9.746 -4.86,-8.102 -11.86,-15.637 -20.78,-22.649 -0.26,-0.301 -0.52,-0.562 -1.08,-0.562 z m 136.94,-53.172 c 0.53,0 1.35,0.265 2.18,0.265 1.04,0 1.87,0.262 2.39,0.524 l 1.09,0.301 c 1.08,-0.301 2.17,-0.563 3.25,-0.563 3.75,0 6.45,2.176 8.61,4.313 2.18,2.437 4.31,5.136 6.22,8.66 3.48,6.75 6.44,13.5 9.14,20.512 1.64,4.312 3.51,8.621 5.39,12.972 l 2.43,5.098 c 3.26,7.312 6.74,14.851 10.78,21.597 l 6.74,10.801 c 2.69,4.875 5.65,9.75 8.65,14.586 5.09,8.098 10.48,15.672 17.22,22.946 l 8.65,10.539 1.35,1.613 c 1.61,1.91 1.08,4.871 -0.27,6.484 -1.34,1.352 -2.99,1.352 -3.78,1.352 h -1.34 c -1.35,-0.528 -2.44,-1.09 -3.26,-2.176 l -5.92,-6.75 c -4.57,-5.398 -9.43,-10.797 -13.74,-16.723 -7,-9.449 -13.74,-19.984 -20.21,-31.57 -0.83,-1.914 -2.18,-4.051 -3.52,-5.965 -2.14,-2.961 -3.48,-6.183 -4.83,-9.183 l -4.61,-10.239 -0.26,-0.562 c -1.08,-2.961 -2.43,-5.922 -3.78,-8.887 l -1.61,-3.785 c -2.17,-4.313 -4.04,-8.625 -5.92,-13.5 -2.43,-6.75 -6.21,-13.234 -10.78,-19.422 -1.08,-1.09 -1.35,-1.09 -1.65,-1.09 -0.26,0 -0.78,0 -1.87,0.266 -1.61,0.523 -2.43,1.609 -2.95,3.223 -0.83,3 -1.35,5.96 -1.35,8.925 0.26,9.711 0.26,19.422 0.52,28.871 0,6.75 0.26,13.235 0.26,20.246 0,2.704 0,5.403 0.57,8.102 1.6,9.188 0.78,12.148 -7.57,14.059 l -3.48,0.789 c -0.82,0.3 -1.65,0.3 -2.99,0.3 h -0.27 c -4.04,0 -7,-2.175 -7.52,-5.96 l -0.82,-4.051 c -0.83,-4.313 -1.61,-8.625 -2.17,-12.938 -1.05,-7.836 -1.05,-15.933 -0.79,-23.508 0.26,-6.75 0.52,-12.937 -0.26,-19.16 v -0.527 -2.699 c 0.26,-1.91 0.26,-3.262 0.26,-4.614 0.79,-7.011 3.78,-13.234 9.43,-18.335 3.48,-3.524 7.53,-5.137 12.39,-5.137 z m 88.13,-14.5862 c 1.65,0 3.52,0.2657 5.39,0.8282 4.35,1.3476 8.09,3.75 11.87,7.535 7,7.313 12.69,15.672 16.17,24.86 1.62,4.05 4.31,6.449 8.35,7.273 4.61,0.828 8.91,2.699 12.7,4.875 6.17,3.227 11.3,7.801 16.43,12.41 2.69,2.438 5.65,4.84 8.61,7.012 1.35,1.09 1.65,2.703 1.91,4.051 0.26,1.089 0,2.175 -0.83,2.961 -0.52,0.828 -1.87,1.351 -3.21,1.351 -0.83,0 -2.7,0 -3.79,-1.351 -4.86,-4.047 -8.6,-7.274 -11.86,-10.536 -5.13,-4.574 -11.05,-7.535 -15.91,-9.711 -1.87,-0.789 -4.05,-1.613 -5.39,-0.523 -0.26,0.523 -0.26,1.086 0.29,2.961 0.27,0.523 0.53,1.352 0.53,1.875 2.17,8.66 3.78,17.848 3.22,27.297 -0.52,9.972 -4.04,16.984 -11.31,21.597 -2.96,1.614 -3.78,3.223 -3.22,5.926 0.53,3.785 -1.35,5.66 -2.43,6.485 l -1.61,0.789 c -2.43,1.648 -4.87,3.261 -8.09,4.047 -3.52,0.828 -6.73,0 -9.17,-2.7 -1.35,-1.347 -2.43,-2.961 -3.52,-4.574 l -4.3,-7.273 c -3.78,-6.223 -7.83,-12.711 -11.05,-19.461 -7.82,-14.848 -11.87,-32.133 -12.39,-51.031 0,-7.801 1.05,-14.547 3.22,-21.036 1.61,-4.312 4.31,-8.097 8.09,-11.359 3.22,-2.9649 7.26,-4.5782 11.3,-4.5782 z m 25.61,48.3362 c -1.87,0 -3.74,0.262 -5.39,0.262 -5.09,0.824 -8.61,3.523 -11.04,8.359 -1.61,2.965 -1.61,5.137 0,7.312 2.43,4.051 4.86,8.364 7,12.676 l 0.3,0.524 c 1.34,2.437 2.39,4.613 3.48,7.05 0.56,1.348 1.34,2.399 1.91,3.746 l 0.26,0.563 c 0.52,1.09 1.08,2.437 1.87,3.488 1.09,1.914 2.43,3 3.78,3 1.35,0 2.96,-1.086 4.57,-2.699 1.91,-2.176 2.99,-4.875 2.99,-7.836 v -5.137 -3.226 c 0.79,-7.047 -1.34,-14.324 -3.52,-21.899 l -1.08,-2.961 c -0.79,-2.96 -1.35,-3.222 -4.31,-3.222 z m -18.31,-34.574 c -0.26,0 -0.82,0 -1.34,0.261 -4.87,2.176 -7.3,6.227 -7,12.977 l 0.78,5.398 c 0.83,5.137 1.61,10.274 3.26,14.848 0,0.262 0,0.527 0.26,0.527 4.31,-5.664 10.22,-8.625 18.31,-8.886 l 3.52,-0.829 c -3.22,-8.886 -7.57,-17.808 -16.18,-23.734 -0.82,-0.562 -1.34,-0.562 -1.61,-0.562 z m 178.69,54.257 c -1.87,0.563 -3.74,-0.261 -4.56,-1.875 -0.83,-1.613 -1.35,-2.961 -1.61,-4.05 -1.61,-8.098 -4.87,-15.934 -8.09,-23.473 -0.56,-1.91 -1.35,-3.523 -2.17,-5.398 -3.78,-9.75 -12.13,-15.411 -17.52,-3.524 -4.83,10.797 2.69,30.785 6.21,40.758 2.14,6.488 4.31,13.234 5.13,20.808 0.53,4.051 -0.3,8.102 -2.43,11.852 -1.09,2.172 -2.7,3.262 -4.61,3 l -1.05,-0.301 c -12.95,-2.699 -15.91,-21.597 -21.04,-31.574 -2.17,-3.785 -4.04,-7.836 -5.65,-11.883 -3.52,-8.101 -8.91,-14.586 -15.91,-19.426 -1.35,-1.085 -2.96,-1.347 -4.57,-1.347 -2.69,0 -5.39,1.347 -6.48,3.785 -5.65,9.977 -5.95,17.812 -4.04,28.609 1.88,10.539 6.18,22.95 -7.56,25.649 -1.09,0.261 -2.44,0.261 -3.48,0.785 -2.44,1.09 -5.13,-0.524 -6.48,-3.223 l -1.08,-2.699 c -1.35,-2.961 -2.7,-6.227 -3.52,-9.449 -2.7,-8.926 -2.4,-18.074 -1.88,-25.121 1.35,-17.25 18.87,-38.848 37.48,-27 13.22,8.101 21.3,17.551 25.04,29.172 l 0.31,0.265 c -0.31,-2.437 -0.57,-4.84 -1.35,-7.277 -1.65,-5.399 -2.17,-10.797 -1.91,-15.109 v -3.262 c -0.26,-1.613 -0.26,-2.961 0,-4.313 0.26,-10.273 4.86,-17.285 14.3,-21.074 1.87,-0.523 3.48,-1.047 5.13,-1.047 1.87,0 3.48,0.524 5.09,1.348 5.95,3.226 11.34,7.539 15.65,12.676 1.09,1.347 1.61,2.699 1.87,4.047 l 0.56,1.351 c 0.53,1.086 0.79,2.176 1.35,3.223 l 2.43,5.402 c 3.22,7.309 5.92,14.848 8.61,22.422 l 0.83,3.223 c 0.26,1.914 -1.09,3.527 -3,4.05 z m 18.08,-68.0192 c 3.49,0 7,0.5274 10.52,1.3516 11.31,2.6992 17.23,11.3246 21.01,18.6366 0.26,0.785 0.82,1.348 1.08,2.137 0,0.562 0.26,1.348 0.53,1.91 4.34,7.277 6.21,15.113 5.95,24.035 -0.26,3.488 -0.56,7.801 -2.43,11.852 -4.31,8.922 -8.91,16.758 -13.74,23.508 -1.09,1.875 -2.44,3.488 -3.78,5.398 -2.18,2.965 -4.31,6.187 -6.48,9.449 -1.35,1.613 -2.43,3.227 -2.7,4.574 -0.78,2.965 -2.13,5.664 -3.22,8.102 -0.56,1.613 -1.08,2.961 -1.61,4.312 l -2.43,6.485 c -2.17,7.574 0.79,14.324 7.53,17.812 2.99,1.649 5.95,1.086 8.64,-1.05 2.7,-2.176 2.44,-4.875 2.14,-6.75 -0.53,-1.348 -0.79,-2.7 -1.35,-4.047 l -0.79,-2.176 -0.26,-0.824 -0.82,-3.227 c -0.26,-1.348 0.52,-2.961 1.35,-3.523 1.61,-1.352 3.78,-1.051 5.13,0.562 4.04,5.399 5.91,11.324 5.39,17.547 -0.27,4.313 -1.61,7.539 -3.52,9.973 -1.87,2.437 -4.31,4.613 -7,6.226 -6.48,4.051 -12.4,4.313 -18.35,1.348 -5.39,-2.699 -9.7,-7.012 -13.48,-13.234 -1.04,-1.614 -1.87,-3.524 -2.69,-5.661 -2.14,-7.839 -1.61,-15.937 1.65,-24.562 1.87,-4.609 4.04,-8.66 6.17,-12.711 l 4.31,-8.098 c 2.69,-6.187 6.21,-11.886 9.43,-17.55 2.7,-4.575 5.39,-9.184 7.83,-14.024 h -1.61 l 2.96,-2.961 c -0.27,-1.648 0,-3.262 0,-4.613 0.26,-0.262 0.26,-0.785 0.26,-1.086 1.08,-7.012 -0.53,-14.023 -4.84,-22.121 -0.55,-1.09 -1.6,-2.438 -2.95,-3.527 -1.65,-1.61 -3.78,-2.961 -5.69,-4.309 -1.05,-0.527 -1.87,-1.09 -2.7,-1.352 -5.09,-2.437 -10.22,-2.136 -15.87,0.563 -5.13,2.398 -7.56,6.75 -7.56,12.41 0.26,5.137 1.35,9.977 3.52,14.285 l 0.52,0.828 -0.52,1.086 c -1.09,2.137 -2.7,4.836 -5.13,4.836 -4.04,0 -5.39,-5.922 -5.96,-11.058 -1.87,-5.664 -2.13,-11.063 -0.52,-16.2 1.09,-3.488 2.7,-6.75 4.31,-9.976 l 0.82,-1.61 c 0.52,-1.351 1.61,-3 2.96,-4.05 1.08,-0.563 2.17,-1.086 2.95,-1.914 3.26,-1.875 6.48,-4.0473 10.26,-5.1372 3.22,-1.3476 7,-1.875 10.78,-1.875" /></g></g></g></g></svg>