<?xml version="1.0" encoding="UTF-8" standalone="no"?>
<svg
   xmlns:dc="http://purl.org/dc/elements/1.1/"
   xmlns:cc="http://creativecommons.org/ns#"
   xmlns:rdf="http://www.w3.org/1999/02/22-rdf-syntax-ns#"
   xmlns:svg="http://www.w3.org/2000/svg"
   xmlns="http://www.w3.org/2000/svg"
   xmlns:sodipodi="http://sodipodi.sourceforge.net/DTD/sodipodi-0.dtd"
   xmlns:inkscape="http://www.inkscape.org/namespaces/inkscape"
   version="1.1"
   id="svg2"
   xml:space="preserve"
   width="425.33334"
   height="548"
   viewBox="0 0 425.33334 548"
   sodipodi:docname="Luxembourg.eps"><metadata
     id="metadata8"><rdf:RDF><cc:Work
         rdf:about=""><dc:format>image/svg+xml</dc:format><dc:type
           rdf:resource="http://purl.org/dc/dcmitype/StillImage" /></cc:Work></rdf:RDF></metadata><defs
     id="defs6" /><sodipodi:namedview
     pagecolor="#ffffff"
     bordercolor="#666666"
     borderopacity="1"
     objecttolerance="10"
     gridtolerance="10"
     guidetolerance="10"
     inkscape:pageopacity="0"
     inkscape:pageshadow="2"
     inkscape:window-width="640"
     inkscape:window-height="480"
     id="namedview4" /><g
     id="g10"
     inkscape:groupmode="layer"
     inkscape:label="ink_ext_XXXXXX"
     transform="matrix(1.3333333,0,0,-1.3333333,0,548)"><g
       id="g12"
       transform="scale(0.1)"><path
         d="m 3018.09,3220.77 c -266.1,518.24 -800.67,885.19 -1427.7,885.23 v -810.62 c 443.83,-0.04 804.77,-349.38 804.77,-793.21 0,-438.44 -363.91,-816.4 -804.77,-816.4 V 9.98047 C 2155.59,598.93 2806.02,1246.35 3090.62,2021.43 c 142.31,387.62 115.79,832.58 -72.53,1199.34 z"
         style="fill:#b3b3b3;fill-opacity:1;fill-rule:nonzero;stroke:none"
         id="path14" /><path
         d="M 90.5117,2021.43 C 375.078,1246.35 1025.55,598.93 1590.7,9.98047 V 1685.77 c -440.82,0 -804.72,377.96 -804.72,816.4 0,443.83 360.93,793.17 804.72,793.21 V 4106 C 963.672,4105.96 429.141,3739.01 163.051,3220.77 -25.2695,2854.01 -51.8398,2409.05 90.5117,2021.43 Z"
         style="fill:#979797;fill-opacity:1;fill-rule:nonzero;stroke:none"
         id="path16" /><path
         d="m 2870.55,2515.8 c 0,-706.91 -573.05,-1280 -1280,-1280 -706.921,0 -1279.999,573.09 -1279.999,1280 0,706.96 573.078,1280 1279.999,1280 706.95,0 1280,-573.04 1280,-1280 z"
         style="fill:#f0f0f0;fill-opacity:1;fill-rule:nonzero;stroke:none"
         id="path18" /><path
         d="M 1590.55,3795.8 C 1040.2,3795.8 571.02,3448.46 390.199,2961.04 H 2790.94 C 2610.08,3448.46 2140.9,3795.8 1590.55,3795.8 Z"
         style="fill:#d80027;fill-opacity:1;fill-rule:nonzero;stroke:none"
         id="path20" /><path
         d="m 1590.55,1235.8 c 550.35,0 1019.53,347.39 1200.39,834.81 H 390.199 C 571.02,1583.19 1040.2,1235.8 1590.55,1235.8 Z"
         style="fill:#338af3;fill-opacity:1;fill-rule:nonzero;stroke:none"
         id="path22" /><path
         d="M 1590,3932.33 C 1000.04,3932.33 458.398,3551.94 257.109,2997.91 54.3789,2439.71 231.988,1799.2 688.91,1421.31 1146.8,1042.64 1811.88,992.328 2320.74,1300.14 c 508.99,307.93 777.81,917.46 658.17,1500.59 -117.23,571.09 -592.23,1024.29 -1168.56,1114.53 -72.89,11.4 -146.68,17.07 -220.35,17.07 m 1141.29,-1931.8 c -241.95,-536.09 -845.86,-838.44 -1419.84,-707.19 -441.72,100.98 -803.091,446.1 -926.22,881.57 -126.011,445.23 10.629,934.41 347.348,1251.4 364.262,342.93 913.362,436.57 1370.542,230.39 545.83,-246.13 847.78,-865.15 701.22,-1446.75 -18.09,-71.84 -42.82,-141.88 -73.05,-209.42 -16.72,-36.99 12.34,27.54 0,0"
         style="fill:#c7c7c7;fill-opacity:1;fill-rule:nonzero;stroke:none"
         id="path24" /></g></g></svg>
