<?xml version="1.0" encoding="UTF-8"?>
<!DOCTYPE svg  PUBLIC '-//W3C//DTD SVG 1.0//EN'  'http://www.w3.org/TR/2001/REC-SVG-20010904/DTD/svg10.dtd'>
<svg width="1493.3mm" height="842.72mm" clip-rule="evenodd" fill-rule="evenodd" image-rendering="optimizeQuality" shape-rendering="geometricPrecision" text-rendering="geometricPrecision" version="1.0" viewBox="0 0 16507 9315" xml:space="preserve" xmlns="http://www.w3.org/2000/svg">
 <defs>
  <style type="text/css">
   <![CDATA[
    .fil1 {fill:none}
    .fil2 {fill:black}
    .fil4 {fill:#336699}
    .fil3 {fill:#9900CC}
    .fil13 {fill:#993366}
    .fil10 {fill:#996699}
    .fil8 {fill:#999999}
    .fil5 {fill:#99FF99}
    .fil7 {fill:#CC3300}
    .fil14 {fill:#CCCC33}
    .fil0 {fill:#CCCCFF}
    .fil11 {fill:#FF0066}
    .fil12 {fill:#FF6666}
    .fil9 {fill:#FF9999}
    .fil6 {fill:#FFCC99}
   ]]>
  </style>
 </defs>
    <path class="fil0" d="m6531 3702c15 34-3 70-25 102 69-51 141-112 195-145 71-46 140-4 126 68 6-5 11-9 16-13 45-39 173-160 230-158 65 3 89 71 49 129-44 65-116 147-182 223 44-41 82-77 106-99 66-60 278-265 352-266 59-2 95 52 77 106-25 75-132 222-259 385 130-126 290-273 342-290 86-29 134 46 90 135-33 67-102 166-164 253 100-123 259-313 317-325 72-16 109 53 77 125-40 92-146 254-252 407 185-192 371-383 559-568 58-57 219-214 304-125 79 83-79 279-133 354l-24 33c8-9 16-17 24-26 64-71 287-327 374-335 66-6 99 55 80 117-51 169-393 639-513 798-87 114-175 228-264 342 206-238 401-478 599-740 23-30 163-223 174-233 70-64 149-9 117 78-22 58-496 725-559 815-212 301-427 602-638 905 441-451 1190-1450 1482-1771 38-42 102-133 167-79 66 55-17 131-53 177-335 415-681 835-1010 1260 317-375 639-752 969-1103 65-69 277-308 370-309 48 0 86 45 80 92-12 103-125 231-188 315-264 349-540 701-803 1057 294-348 602-715 912-1044 52-56 202-228 275-227 77 1 87 75 61 137-51 118-190 275-273 381-270 346-564 719-817 1083 289-308 696-798 826-947 62-71 346-414 431-430 67-13 105 47 85 114-15 48-86 172-179 323 9-11 18-22 28-33 48-58 164-213 241-209 59 3 80 62 64 114-37 118-270 481-435 733 64-79 117-146 146-182 57-71 276-360 362-367 63-5 95 51 81 109-24 101-178 366-331 619 31-45 57-83 74-112 62-103 130-224 196-323 52-78 172-22 117 81-149 278-314 549-450 835 92-101 187-213 264-298 54-59 214-251 303-238 158 22 2 294-33 363-21 43-44 86-67 130 8-8 16-14 22-16 67-21 122 40 77 118-59 101-133 190-188 287l-1 2c11 8 21 19 26 34 13 36-5 76-42 90-29 9-51 15-82 8-11-2-19-6-27-10-34 35-71 62-106 58-76-10-71-86-50-143 51-142 226-441 328-649-21 22-40 43-56 61-102 111-388 456-487 499-47 20-98-14-108-61-6-29 9-83 33-147-53 66-154 181-219 94-48-63 39-206 71-263 132-227 275-451 407-679-19 24-35 44-47 58-115 144-518 660-636 754-57 45-129 26-135-41-6-69 161-314 204-382 54-86 209-319 354-547-227 287-449 587-665 874-30 40-127 134-171 157-63 32-125-3-120-68 6-84 314-466 381-552 81-105 144-201 217-310 89-134 188-280 282-426-79 90-156 182-231 269-199 231-729 875-935 1011-58 38-139 50-156-34-17-80 143-295 191-365 159-228 331-459 507-687-224 258-445 523-658 778-74 88-204 236-301 287-47 25-107 4-117-50-13-76 134-271 179-335 295-424 623-842 939-1256-379 409-749 852-1107 1276-113 134-213 272-354 377-49 36-133 76-167-5-8-20-4-49 7-80-104 88-209 149-271 107-82-54 27-171 63-224 111-161 223-321 336-481-197 215-388 416-451 453-44 25-98 5-111-44-17-59 82-177 118-226 281-388 590-765 878-1150 47-63 158-217 255-365-372 401-737 843-1088 1264-160 192-321 397-486 582-39 44-109 146-179 106-73-41-20-119 11-166 124-189 279-392 415-575 90-122 193-268 288-382 137-164 584-686 801-995-355 352-703 723-1054 1080-89 91-228 240-324 318-71 58-146 1-124-72 14-48 304-367 360-434 33-39 91-114 160-205-103 102-216 207-310 290-43 38-117 122-181 81-82-53 12-146 50-192 167-201 309-389 458-603 4-5 8-11 12-17-68 66-134 132-194 191-92 91-288 293-386 362-54 38-122 24-131-43-8-64 143-240 183-291 65-83 211-260 339-426-23 21-44 41-64 59-106 98-332 317-445 388-56 35-127 28-138-43-7-42 44-126 106-211-46 39-110 87-161 56-72-43-20-120 21-172-40 17-75 23-102 12-67-28-60-92-30-157-7-9-11-19-14-31-10-54 76-166 105-207 30-42 70-112 133-89 78 30 38 108 3 163z"/>
   <path class="fil1" d="m6447 3704c209-333-244 299-27 70s-435 531 268-20c348-273-718 815 41 150 799-699-27 108-178 390-181 339 1729-1698 362 10-943 1176 1147-1128 587-321-259 373-342 503-637 856-202 242 446-377 540-494 943-1174 40 180-262 523-1121 1271 1070-1052 1173-1122 539-364-791 1171-823 1214-3 5-1123 1485-550 821 46-54 2636-3224 1530-1553-305 460-2048 2576-572 960 358-391 651-768 964-1190-177 294-1414 2010-1415 2042 232 59 1571-1786 1882-2082-37 55-2218 2697-1415 1962 35-32 2e3 -2414 1718-1828-49 103-2024 2588-1165 1734 6-6 1819-2191 1403-1498-10 17-1739 2186-1099 1624 433-381 2422-2957 740-463-20 30-743 935-290 494 5-5 1336-1799 1073-1277-218 434-1626 2410-178 596 926-1159-197 600-269 745-246 497 443-457 471-502 715-1186-475 791-307 733 130-45 1117-1363 519-254-678 1258 417-408 65 149-41 65-257 336-105 281"/>
    <path class="fil2" d="m7444 3971c-2-136-29-259-174-136-61 51-174 202-51 250 138 53 307-49 429 111 123 162 14 400-182 457-146 42-333-18-454-102-38-26-46-41-66-79-19-34-6-77 28-95 34-19 76-7 95 27 2 4 11 24 17 28 70 46 172 90 256 95 114 6 228-67 215-190-11-104-103-98-180-95-598 24-316-576-19-597 186-12 224 181 227 326 0 39-32 70-70 70-39 0-71-31-71-70z"/>
   <path class="fil1" d="m7515 3971c0-698-872 259-106 199 400-31 237 692-360 322-23-15-29-31-42-54"/>
    <path class="fil2" d="m7878 4284c-42-22-56 0-67 47-29 115 40 203 156 195 22-2 103-12 114-34 37-77-38-284-120-320 26 22 32 60 14 90-21 33-64 43-97 22zm-98-136c-6-25 2-52 22-70l28-21c246-159 480 289 375 501-52 104-247 126-347 97-187-56-252-308-135-459 17-22 37-38 57-48z"/>
   <path class="fil1" d="m7915 4225c-233-146-301 512 177 344 183-64-32-620-244-438"/>
    <path class="fil2" d="m8492 4217c-82-43-125-7-155 78-29 80-38 236 94 194 53-17 100-51 144-84l35-40c25-29 69-32 99-6 29 25 32 69 6 99-32 37-35 44-74 73-446 329-571-189-365-404 89-93 185-85 290-29 33 21 43 64 23 97-21 33-64 43-97 22z"/>
   <path class="fil1" d="m8529 4158c-336-210-440 719 95 298l39-45"/>
    <path class="fil2" d="m8837 4111c-18 109-28 336-17 446 16 36-1 77-36 92-36 16-77-1-92-36l-13-55c-15-107 3-379 23-487 11-37 50-58 87-47s59 50 48 87z"/>
   <path class="fil1" d="m8769 4091c-16 55-37 439-13 494"/>
    <path class="fil2" d="m8607 3817c-2-46 10-90 64-109 126-45 282 163 133 231-41 18-138 24-174-16-27-30-33-70-23-106z"/>
   <path class="fil1" d="m8689 3878c-87-255 277 35-1 1-21-3-26-72 28-82"/>
    <path class="fil2" d="m9045 4145c-26 8-46 40-62 101-18 63-27 228 28 271 14 12 53-16 77-44-33-56-43-104-44-183-1-30-4-89 1-145zm204 309c35 44 79 78 110 46 36-37 62-120 80-221-15-171-5-350 2-436 5-61 3-202 87-211 72-7 83 63 85 117 5 142-3 359-32 534 12 127 36 232 79 259 34 22 137-95 153-126 24-46 37-117 49-168 10-38 48-61 86-51 37 9 60 47 51 85-13 53-25 113-45 164-42 101-170 240-288 239-79-1-133-56-169-139-79 127-201 146-319 38-28 29-63 52-101 65-273 98-325-440-139-601 56-49 113-56 168-42 14-7 30-9 50-4 30 6 53 31 69 66 11 8 21 16 32 24 29 26 31 71 5 100-2 1-4 3-6 5 11 96 4 203-7 257z"/>
   <path class="fil1" d="m9210 4145c-395-357-410 717-70 378 142-142-46-828-25-177 4 120 428 698 428-554 0-499-204 1274 295 711 61-69 71-153 92-238"/>
    <path class="fil2" d="m7019 5963c-30-136-70-432 81-513 74-40 133-3 175 56 5-16 11-29 18-37 40-48 108-33 134 22 15 30 27 70 37 114 31-84 78-142 148-125 136 33 148 383 172 500l1 3h2c39 3 68 37 65 76-6 48-8 112-59 135-158 70-153-337-204-522-32 106-43 285-44 357-2 107-121 112-144 21-6-25-11-50-16-77v89c-2 9-6 14-21 50-66 27-33 27-99 0-10-24-16-39-19-50h-2v-9c-2-12-1-22-1-38-3-126-20-369-84-433-53 70-19 276-3 348 9 37-14 75-52 85-38 9-75-14-85-52z"/>
   <path class="fil1" d="m7088 5946c-128-523 226-692 226 116 0-1306 161 141 161-33 0-378 148-816 230-91 2 18 59 334 77 115"/>
    <path class="fil2" d="m7948 5719c64 16 225 54 143-69-73-109-137-18-163 66 7 0 13 1 20 3zm-5 142c62 106 215 200 296 43l12-25c14-35 56-52 91-37 36 14 53 55 38 91l-16 36c-106 203-322 204-478 46-103-103-137-217-86-355 143-391 494-129 449 85-31 149-189 141-306 116z"/>
   <path class="fil1" d="m7928 5786c540 154 76-603-77-54-57 203 323 515 464 174"/>
    <path class="fil2" d="m8476 5702c-62 75-127 218-33 248 103 32 159-22 202-115 46-99 23-138-29-147-11 19-31 33-55 35-24 1-46-9-60-27-9 2-17 4-25 6zm107-156c222 2 291 191 163 397-64 103-140 161-261 155-404-22-186-534 9-575 40-9 68 2 89 23z"/>
   <path class="fil1" d="m8556 5653c-18-263-490 394-27 375 177-8 406-529-93-389"/>
    <path class="fil2" d="m8656 5817c5-10 9-23 13-36-20-183-7-452 1-595 4-59-3-175 71-193 101-24 100 123 103 180 9 154 12 430-33 614 9 67 26 129 54 142 31-5 58-57 79-113-3-14-5-27-7-39-13-95-14-310 112-326 84-12 86 60 83 120-3 83-16 174-42 256 13 49 31 91 52 108 32-17 70-97 84-125 16-35 58-50 93-34s51 58 35 93c-37 74-85 173-171 201-79 25-136-17-175-81-102 123-244 111-309-68-7-2-13-4-19-8-33-20-44-63-24-96z"/>
   <path class="fil1" d="m8716 5853c123-206 27-1517 13-240-6 609 334 438 334-94-154 32-3 823 227 321"/>
    <path class="fil2" d="m8928 5368c-31-56-77-148 5-186 102-48 320 175 182 250-46 24-160 8-183-52-1-4-3-8-4-12z"/>
   <path class="fil1" d="m8996 5346c-170-273 277 106 2 11-8-24-4-46 12-65"/>
    <path class="fil2" d="m9581 5534c-33 5-65 34-92 66-61 69-137 222 12 237 67 7 85-27 100-89-9-50-13-100-17-146-1-22-4-46-3-68zm162 227c23 111 71 206 184 184 115-23 155-73 190-179 11-37 51-58 88-47s58 51 46 88c-51 156-129 242-297 276-157 31-247-44-300-154-32 30-73 49-122 50-383 5-287-447-22-568 100-46 181-12 249 66 23 30 18 72-10 96 11 55 10 123-6 188z"/>
   <path class="fil1" d="m9704 5519c-190-248-595 392-173 390 179-1 176-381 119-376 12 133 6 627 388 447 86-40 120-110 146-194"/>
    <path class="fil2" d="m6429 3497l2-4-3 36c106-7 212-16 319-25 650-56 1262-119 1918-123 530-4 1491-106 1954 122 165 81 220 158 260 329 62 269 93 613 116 894 40 470 74 1029 56 1496-5 108-4 316-91 386-165 134-840 60-1056 42-339-29-988-105-1307-48-351 61-552 52-899-16-393-77-601-84-984 36-51 16-113 54-157 14-53-46-73-282-82-358-67-545-108-1118-144-1667-20-298-44-630-46-932-53 2-104 2-158 2-39 0-71-32-71-70 0-39 32-71 71-71 53 1 106-1 159-3 1-35 5-63 22-111 21-33 64-42 97-21 31 20 41 60 24 92zm-5 173c1 131 10 275 15 381 32 662 83 1350 153 2009 12 115 30 310 56 436 376-121 620-137 1028-57 358 70 531 88 895 25 342-61 985 16 1345 46 107 9 927 87 964-24 86-261-5-1558-40-1923-14-139-74-724-137-820-224-341-1476-234-1856-224-223 6-443 4-668 14-589 26-1170 98-1755 137z"/>
   <path class="fil1" d="m6367 3464c-65 101 164 3146 239 3120 951-330 1075 119 1978-51 556-105 2197 231 2351 1 130-195-20-2613-175-2831-280-397-1564-253-2007-253-944 0-1543 97-2440 157-69 5-119 4-186 4"/>
    <path class="fil3" d="m8186 1918c4 183 18 479 67 568 225 5 986 40 1126-48-5-143-12-516-98-640-92 74-183 172-258 252-76 81-160 183-236 257-35 34-79 37-106 11-24-12-36-22-69-45-77-54-131-88-192-158-68-78-145-145-234-197zm946-177c-143-5-352 39-444 53-122 20-238 36-356 51 81 57 148 123 224 213h1c53 40 107 80 162 118 59-60 123-137 178-197 64-68 150-160 235-238zm-388 456l-3-1c9 3 16 6 21 9-5-4-11-6-18-8zm45 37c2 5 4 10 7 17-2-6-4-12-7-17zm490-608c11-6 20-5 53-6l12 41c159 125 163 501 172 694 4 78 21 140-49 193-162 124-908 88-1134 81-121-4-173 14-222-120-46-122-75-528-65-700-2-13-1-24 3-34v-2c11-34 46-53 80-46 4-1 9-2 13-2 191-18 372-45 561-75 155-25 414-85 576-24z"/>
   <path class="fil1" d="m8115 1795c0 1-8 761 120 761 166 0 1222 65 1215-107-43-1010-108-798-1161-668-361 44-94-54 212 321 10 12 213 160 226 163 3 15 395-459 578-573 19-12-3 1-15 10"/>
    <path class="fil3" d="m9763 2169c177-47 335-37 454 119 165 215 138 606 7 832l-22 36c-21 32-65 41-97 19s-41-65-19-97c104-168 138-409 74-597-61-182-177-226-355-178-37 11-77-9-88-46-12-37 9-77 46-88z"/>
   <path class="fil1" d="m9784 2236c515-161 576 559 360 881"/>
    <path class="fil3" d="m9987 2943c1 56-5 270 96 256 95-13 259-154 338-217 30-24 74-19 98 11s19 74-11 99c-107 86-270 227-405 246-229 32-253-233-256-395 0-39 31-70 70-70s70 31 70 70z"/>
   <path class="fil1" d="m9917 2943c0 569 342 257 547 94"/>
    <path class="fil3" d="m8498 2897c-303 170-618 195-904-25-418-321-535-1015-177-1426 105-120 391-430 561-333l22 14c30 25 34 69 9 99s-69 34-99 9c-1-1-2-1-3-1-81-14-302 216-360 278-309 331-246 878 60 1185 242 243 531 241 820 79 33-20 76-9 96 25 19 33 8 76-25 96z"/>
   <path class="fil1" d="m8462 2836c-893 529-1552-764-965-1373 67-70 343-377 458-282"/>
    <path class="fil3" d="m7671 913c56-43 86-52 154-75 328-112 492 30 361 362-44 114-105 220-168 323l-10 28c-12 37-52 56-89 44-37-13-56-53-44-89 6-17 11-35 19-50 55-101 226-362 195-483-21-86-272 16-319 39l1-2c-24 19-58 20-84 1-31-22-38-66-16-98z"/>
   <path class="fil1" d="m7728 955c7-10 800-389 226 538l-12 35"/>
     <path class="fil4" d="m11662 3484v45c1 6 1 13 0 19-3 144-14 281-19 425-1 32-11 106 25 119 29 12 93 15 148 15 7-221 87-411 100-623 9-131-17-170-147-143-77 17-124 42-129 92 14 13 22 31 22 51zm-141 65l-7-17c-53-151 26-265 173-314 146-49 314-38 361 136 44 167-75 528-91 723-9 109 30 172-110 171-238-2-353-15-344-280 4-142 15-277 18-419z"/>
    <path class="fil1" d="m11592 3484c0 668-134 694 294 694-28-353 320-997-131-905-126 25-238 105-163 264"/>
     <path class="fil4" d="m11842 3244c1-138-4-728 225-692 190 30 212 485 210 681 82 19 220 25 218 139 0 41-24 77-55 108 62 39 108 93 76 176-15 36-44 68-80 96 24 44 25 108 2 180v1c22 18 41 41 57 66 89 134 20 238-142 255-118 13-313-32-431-62-38-9-60-47-51-85 10-38 48-60 86-50 79 20 364 88 435 47-6-24-33-55-53-69-13 0-24-4-39-20-38-40-8-83 5-125 7-22 9-46 10-59-1 1-3 1-4 1-57 8-32 25-101-24l-5-68c21-23 17-24 32-33 37-20 122-60 146-98-24-27-94-39-119-68-60-67 23-114 69-154-37-9-75-12-111-23-79-24-87-57-85-128 3-123-10-429-87-533-60 98-67 448-67 541 0 38-32 70-70 70-39 0-71-32-71-70zm500 791c11 3 20 0 32-2-13 0-23 2-32 2z"/>
    <path class="fil1" d="m11913 3244c0-971 321-685 293 26-2 66 410 6 109 223 0 14 329 84-22 265-109 56 193-116 58 209 45-16 389 363-412 157"/>
     <path class="fil5" d="m10171 7818c62-1 135-4 187-17-50-72-118-139-80-242 48-133 343-248 465-204 279 101-102 673-199 810-94 132-189 488 42 549 22 6 40 9 59 10 6-70 1-173 6-244 18-259 93-442 280-624 139-135 155-292 26-441-144-168-422-230-630-176-62 16-117 281-129 348-13 77-23 154-27 231zm-74 141c-38 0-70-32-70-71v-3c5-189 55-624 199-747 78-66 271-61 363-51 283 32 603 237 596 550-6 249-184 302-290 483-118 200-101 372-109 589-4 120-30 165-149 155-431-33-384-531-203-786 75-106 295-461 268-582-9-38-161 24-176 30-236 101-48 132-15 267 46 182-301 165-414 166z"/>
    <path class="fil1" d="m10097 7888c822 0-156-230 454-447 506-179 2 600-62 681-97 121-278 674 196 674 96 0-99-535 293-888 369-331-61-861-665-738-157 32-216 572-216 718"/>
     <path class="fil5" d="m10370 8892c3 6 7 13 11 20 127-2 452-14 479 129 18 89-126 235-210 263-207 68-328-194-399-337-20-33-10-77 23-97 33-21 76-11 96 22zm83 161c49 81 111 150 178 105 31-21 54-52 75-83-58-17-169-22-253-22z"/>
    <path class="fil1" d="m10311 8929c29 46 219 574 474 154 69-115-369-100-421-100"/>
     <path class="fil6" d="m2e3 2614c-42-159-39-332 81-458 147-153 335-89 432 85 1 2 2 4 4 7 21-87 53-157 105-179 123-53 210 112 266 292 37-87 96-148 192-132 194 32 289 369 287 540l-2 43c-3 39-37 68-75 65-39-3-68-37-65-76 5-106-11-201-57-298-13-29-87-155-119-134-67 42-81 279-83 396 1 14 1 23-1 34v8h-2c-3 11-9 26-19 49-66 28-33 28-99 0-10-24-16-38-19-49h-1l-1-8c-2-10-1-19 0-32-6-117-68-445-153-551-46 104-52 424-53 548 1 14 1 21 0 27-2 9-7 16-21 49-66 28-33 28-99 0-10-23-15-38-19-49h-2v-9c-2-12-1-22 0-38-3-95-10-188-31-281-23-99-111-336-248-224-97 80-93 224-64 333 12 37-9 77-46 88-37 12-76-9-88-46z"/>
    <path class="fil1" d="m2067 2593c-149-478 481-792 481 198 0-1259 347-407 347 16 0-906 433-411 400 0"/>
     <path class="fil6" d="m3769 2391c-63-68-194-59-265-15 62 19 170 11 265 15zm107 14c10 2 18 6 26 9 118 54 82 178 8 259-112 123-439 297-537 80l-13-37c-9-38 15-76 53-84 38-9 75 14 84 52l4 12c32 73 299-69 335-158-16-6-43-8-55-8-116-5-379 24-433-106-52-128 135-203 230-217 128-20 225 8 308 104 21 30 17 70-10 94z"/>
    <path class="fil1" d="m3829 2353c-176-240-795 129-87 107 489-16-246 530-313 240"/>
     <path class="fil6" d="m4362 2338c-106-30-255-49-204 113 14 42 65 141 119 86 42-43 68-127 85-199zm152-48l1-4c15 212 40 423 53 637 13 210 63 899-111 1034-138 107-313-100-351-217-88-271 128-549 248-778 14-28 44-42 73-38-7-119-16-230-24-321-172 236-435-31-390-257 40-198 247-184 397-140 7 2 13 5 19 9l43 2c37 15 44 44 42 73zm-78 812c-102 176-254 418-197 592 13 41 86 145 131 153l3-3c72-84 77-416 63-742z"/>
    <path class="fil1" d="m4390 2273c-654-204-98 877 55 9-10 15 262 2117-218 1532-203-247 75-591 189-820"/>
     <path class="fil6" d="m4994 2195c-1 17-1 36-2 54 46-100 109-166 195-120 24 12 48 42 72 82 31-33 71-59 118-78 225-92 268 234 283 378 6 53 9 132 19 182 16 28 10 65-15 87-30 25-74 22-99-7-20-33-22-37-27-74-7-46-32-456-98-440-53 13-92 53-111 100 27 72 46 141 49 178 10 117-164 155-196-75-5-32-5-62-1-91-15-39-32-74-46-98-27 48-54 145-64 181-17 65-47 224-69 276-30 69-104 78-137 20-34-56-14-465-12-559 1-39 34-69 72-68 39 1 70 33 69 72z"/>
    <path class="fil1" d="m4923 2193c-34 1355 70-400 290 78 282 613-188 86 191-74 211-88 179 491 214 530"/>
     <path class="fil6" d="m5874 2401c2 12 3 30 6 46 54-55 124-202 134-279-61 32-154 113-194 170 29 6 52 32 54 63zm31 196c112 86 274 108 305-54l5-36c3-38 37-67 76-64 38 3 67 37 64 76l-7 51c-98 504-886 88-652-300 52-87 250-262 354-253 232 20 24 513-145 580z"/>
    <path class="fil1" d="m5804 2406c36 520 612-747 0-160-325 313 440 761 481 267"/>
    <path class="fil7" d="m11777 6310c36-157 64-332 80-512-52-242-99-494-123-728-8-81-43-316 60-347 103-32 141 134 156 200 62 259 73 567 49 866 27 132 53 243 68 303 10 42 43 189 115 162 50-19 111-93 154-172-12-50-19-101-23-149-4-49-15-122 13-160v-10c1-143 195-151 295-147 800 31 497 720 100 789-159 28-260-47-323-158-58 77-131 136-203 149-142 24-210-96-248-215-10 55-21 109-34 161-9 38-46 61-84 52s-61-47-52-84zm708-214c39 130 119 226 283 147 172-82 344-349 78-448-71-26-314-64-378-23 0 1 1 2 1 3 18 12 31 29 40 48 19 19 25 46 17 69 5 61-11 133-41 204z"/>
   <path class="fil1" d="m11845 6326c337-1418-379-2498 153-218 148 629 653-289 381-289 0 1247 1386-134 185-134-169 0-222 79-105 187"/>
    <path class="fil7" d="m13086 5636c35 99 120 355 191 454 44-82 83-277 202-371 56-44 92-49 160-50 39 3 68 37 65 75-3 39-37 68-76 65-81 1-120 89-149 156-38 85-101 342-244 273-123-59-236-425-282-557-12-36 7-76 44-89 37-12 77 7 89 44z"/>
   <path class="fil1" d="m13020 5659c389 1134 263 52 614 80"/>
    <path class="fil7" d="m13723 5892c21 26 83 101 103 82 50-46 62-233 28-292-48 34-102 133-131 210zm-14 183c63 251 456 376 614 56l19-44c14-36 55-54 91-40s54 54 40 91l-24 55c-251 510-957 224-884-254 18-118 141-378 273-401 219-39 227 444 65 554-70 47-137 26-194-17z"/>
   <path class="fil1" d="m13660 5926c379 514 372-812 18-109-245 486 516 853 730 295"/>
    <path class="fil8" d="m2465 6591v-5c43 223 87 448 132 672 116-162 335-101 472 19 228 199 300 521 304 811 0 39-31 70-70 70s-70-31-70-70c-3-237-54-501-226-677-78-80-259-189-316-31-38 104 15 314 34 430 8 56 39 158-45 174-73 13-86-63-97-115-72-310-133-634-195-948-20-100-52-234-63-330 1-38 33-69 72-68 37 1 67 31 68 68z"/>
   <path class="fil1" d="m2395 6593c0 5 416 2113 221 995-109-623 687-418 687 500"/>
    <path class="fil8" d="m3681 7380c-137-56-217-10-215 202 0 82 37 301 114 345l4 2c29-9 59-70 86-149-44-124-33-281 11-400zm139 394c9 14 19 28 31 38 50 46 159 84 209 12 49-72 67-213 67-369-51-177-77-339-100-527-7-58-34-181 36-213 71-33 104 42 120 96 42 144 83 394 85 627 44 145 121 368 190 502 17-4 35-3 51 5 35 17 49 59 31 94-22 45-49 112-113 88-57-21-134-196-194-357-14 53-34 99-59 136-96 139-295 116-412 15-53 104-136 193-252 128-180-102-240-550-123-726 95-141 240-121 370-63 36-25 81-27 112 13 65 82-18 394-47 493 0 3-1 5-2 8z"/>
   <path class="fil1" d="m3810 7367c-768-479-281 1368-31 287 203-878-374 209 184 278 543 68-61-2092 187-665 25 144 206 688 301 794l26-53"/>
    <path class="fil8" d="m3864 7244h587c39 0 70 31 70 70 0 38-31 70-70 70h-587c-39 0-71-32-71-70 0-39 32-70 71-70z"/>
   <path class="fil1" d="m3864 7314h587"/>
    <path class="fil8" d="m4548 7635c114-37 384-142 194-229-88-40-198-28-210 88-4 37 2 87 16 141zm48 133c56 123 142 236 238 247 174 21 394-230 499-347 25-29 70-32 99-6 29 25 31 70 6 99-39 44-78 87-120 129-306 312-627 420-847-60-323-708 415-683 474-391 36 182-197 280-349 329z"/>
   <path class="fil1" d="m4531 7714c948-265-390-787 4 87 252 557 620 172 850-87"/>
    <path class="fil9" d="m10890 1790c79-86 154-237 220-408 1-61 7-119 15-169 19-125 161-683 220-760 32-43 98-38 123 11 44 84-112 617-145 723-22 72-46 148-74 225 0 25 1 49 3 72 12 104 71 299 214 236 77-34 123-117 149-206 5-66 15-136 26-177 2-40 9-84 63-90 38-4 66 19 76 55 3 8 3 20 1 35-2 73-8 138-29 209-6 83 2 157 61 170l13 2c38 4 66 39 62 77-4 39-38 67-77 63-81-13-134-48-165-106-80 95-192 154-321 102-91-36-147-110-178-201-46 89-98 172-161 240-29 26-73 25-100-4-26-28-25-72 4-99z"/>
   <path class="fil1" d="m10938 1841c359-337 682-2290 291-783-245 942 483 944 483 259 11 50-128 447 106 471"/>
    <path class="fil9" d="m12236 667c-2 321-11 699-49 1015-8 72-21 244-99 277l-13 4c-38 9-76-15-85-52-6-28 5-55 25-71 18-45 28-130 33-175 37-310 45-683 47-998 0-39 32-70 71-70 38 0 70 31 70 70z"/>
   <path class="fil1" d="m12166 667c0 144-19 1207-107 1228"/>
    <path class="fil9" d="m12474 1405c-52 151-162 218-301 281-30 13-101 41-154 64 93 34 249 65 304 62 79-5 111-36 160-93 23-31 67-37 98-14s38 67 15 98l-44 51c-108 106-239 113-379 83-88-19-316-66-342-161-50-184 427-175 507-406 10-38 48-60 86-50 37 9 59 48 50 85z"/>
   <path class="fil1" d="m12406 1388c-85 323-920 306-250 473 170 43 289 28 383-100"/>
    <path class="fil9" d="m12710 1603c19 53 56 69 133-8 28-29 128-163 52-188-23-7-44-7-67-6-33 33-82 113-118 202zm-47 162c-9 79 7 144 73 164 131 42 377-51 497-99 36-15 77 2 92 38s-3 77-39 92c-137 54-333 125-484 120-313-12-316-263-238-485-7-33-12-66-15-96-2-39 27-72 66-75 9 0 17 1 26 3 7-14 16-27 24-40 54-86 82-129 186-127 389 10 165 517-91 528-39 2-71-7-97-23z"/>
   <path class="fil1" d="m12619 1494c39 601 681-204 187-162-81 7-643 1010 454 563"/>
     <path class="fil10" d="m4314 5287c18-24 36-41 55-47 69-22 106 38 103 104-1 12-2 26-5 42 71 89 92 214-29 282-20 11-48 22-75 28-27 43-60 73-95 77-153 16-159-327-99-420 38-59 91-75 145-66z"/>
    <path class="fil1" d="m4264 5552c312-764 6 543-56 27-60-509 488 8 114 51-89-286 265-158 53-34-50-95 53-228-31-44"/>
     <path class="fil10" d="m4164 5027c-139 254-161 519-74 796 13 36-7 76-43 89-37 13-77-7-90-44-100-318-75-620 86-912 20-34 63-45 97-25 33 20 44 63 24 96z"/>
    <path class="fil1" d="m4104 4991c-149 252-174 585-80 855"/>
      <path class="fil10" d="m3867 4632c-252 373-226 994-72 1401 15 36-3 77-39 91-36 15-77-3-91-39-28-74-49-139-67-216-100-418-93-953 155-1319 23-32 67-39 98-16 32 23 39 66 16 98z"/>
     <path class="fil1" d="m3810 4591c-268 372-238 1070-80 1468"/>
      <path class="fil10" d="m3523 4414c-184 329-213 1212-100 1569 12 36-7 76-44 89-36 13-76-7-89-43-127-404-95-1317 113-1688 20-33 64-44 97-24 33 21 43 64 23 97z"/>
     <path class="fil1" d="m3463 4377c-192 315-226 1283-107 1629"/>
      <path class="fil10" d="m4139 5503c-31-103-71-277 67-313 85-23 195 38 269 124 40 5 70 28 78 77 3 14 1 31-4 50 28 87 5 172-110 214-94 33-349 45-315-116 3-11 8-23 15-36zm168-146c1-1 2-1 3-2-2 0-3-1-4-2 1 1 1 3 1 4zm17 155c2 5 4 9 5 13 12-11 25-25 38-41-14 8-29 18-43 28z"/>
     <path class="fil1" d="m4211 5498c-208-604 651 109 80 107-362-1 408-444 133-80-149 198-187-19-187-160"/>
      <path class="fil10" d="m303 4143c-98-53-139-42-157 76-36 229 126 646 422 402 14-12 25-23 35-35-50-60-90-126-115-175-95-188 54-264 177-156 106 92 136 204 107 306 32 28 62 41 81 22 116-111 85-619-64-574-22 7-33 16-52 28-7 12-7 28-7 41 3 38-25 72-64 76-38 3-72-26-76-64 0-98 20-148 110-195 204-106 317 79 350 254 31 162 21 565-204 584-48 4-96-17-142-50-25 28-55 55-90 78-509 336-773-538-512-752 87-71 189-32 275 15 33 21 43 64 22 97-20 33-63 43-96 22z"/>
     <path class="fil1" d="m340 4084c-459-287-298 974 236 618 433-289-342-705 82-162 419 537 464-872 36-559-29 21-37 71-34 103"/>
      <path class="fil10" d="m1187 4004c25-61 68-107 142-91 177 38 274 460 281 612l1 39c0 39-31 70-70 70s-70-31-70-70l-1-32c-5-116-64-370-155-466-46 143-14 432-48 594-15 75-92 97-132 47-55-69-65-545-64-652 1-39 33-69 72-68 17 0 32 7 44 17z"/>
     <path class="fil1" d="m1141 4057c-6 181 59 1148 80 187 12-592 320-56 320 320"/>
      <path class="fil10" d="m1607 3872c44-95 137-89 211 14 103 144 242 531 298 713 10 37-11 76-49 86-37 11-76-11-86-48-34-110-170-497-260-645-16 148 21 427-21 514-21 46-89 51-123 7-43-56-98-514-106-618 1-39 33-69 72-68 30 0 54 19 64 45z"/>
     <path class="fil1" d="m1541 3897c0 6 127 1098 107 260-20-815 381 392 400 461"/>
      <path class="fil10" d="m2167 4057c11 26 35 85 61 106 60-59 90-349-28-326-33 6-91 31-107 65-13 27-17 68-15 115 36-12 75 5 89 40zm1 235c77 114 203 166 370 3l20-19c27-29 71-30 99-3s29 71 3 99l-24 24c-337 328-651 43-695-332-20-169 17-291 188-353 367-132 357 514 142 589-40 14-74 8-103-8z"/>
     <path class="fil1" d="m2102 4084c220 547 440-572-29-265-200 131 74 989 536 505"/>
      <path class="fil10" d="m2757 3902c-79-44-112-43-124 59-11 96 33 338 182 231 62-44 141-153 212-278-107-145-158-324-71-496 61-119 232-245 340-124 101 112 15 377-101 603 38 39 80 73 120 98 24 16 98 45 134 44 9-34 43-57 78-51 39 6 65 42 59 80-38 171-249 111-353 41-37-24-74-53-108-85-58 96-115 176-155 218-376 395-619-284-396-471 85-71 175-34 260 14 33 21 42 65 20 97-21 32-64 41-97 20zm343-131c60-129 102-255 102-332 0-10-1-42-11-52-43-13-108 86-122 122-33 89-14 180 31 262z"/>
     <path class="fil1" d="m2796 3843c-465-305-191 1229 396-109 369-843-695-239 82 318 23 17 225 117 242 5"/>
      <path class="fil10" d="m2744 3693c276 2 494-55 740-179 34-18 77-4 95 30s4 77-30 95c-269 135-507 196-808 195-39-1-70-34-69-72 1-39 33-70 72-69z"/>
     <path class="fil1" d="m2742 3763c268 7 537-62 774-187"/>
    <path class="fil11" d="m7504 7668c-21-124-68-176-200-145-99 23-282 134-294 242-12 114 363 89 414 94 367 31 345 427 166 663-224 295-555 282-810 49-70-64-99-114-129-203-7-38 18-75 56-82s75 18 82 56c38 98 126 172 218 219 255 131 506-65 561-314 36-168-35-250-205-249-104 0-212 5-312-28-470-152 80-698 414-579 125 45 158 144 179 262 4 39-24 73-62 78-39 4-74-24-78-63z"/>
   <path class="fil1" d="m7574 7661c-67-625-1243 311-213 267 649-28 76 1202-563 563-23-23-71-99-78-136"/>
    <path class="fil11" d="m7190 7100c4 276 24 570 39 846 13 247 24 506 43 756 16 13 25 32 25 53v38c0 61 20 184-70 189-76 5-78-79-83-132-25-278-38-572-53-851-15-293-37-606-41-899 0-39 31-70 70-70s70 31 70 70z"/>
   <path class="fil1" d="m7120 7100c0 171 107 2245 107 1731v-76"/>
    <path class="fil12" d="m4247 355c-36-126-115-224-284-170-188 61-334 284-138 444 137 112 396 139 518 273 118-144 320-317 388-375 73-61 219-176 129-273-49-53-175-123-248-113-103 15-179 116-219 221 14 66 20 134 21 198 0 39-31 70-70 70-22 0-42-10-55-27-38 0-69-31-69-70l3-59c4-39 12-79 24-119zm158 704c-11 98-143 109-149 8-1-11 1-23 6-37-26-80-242-148-307-173-684-255-267-863 125-825 118 12 196 71 247 154 63-95 153-168 265-184 116-16 259 56 345 131 201 178 44 367-115 502-113 94-339 289-417 424z"/>
   <path class="fil1" d="m4344 560c0-1018-1295-72-320 247 675 221-81 519 660-149 125-113 534-365 34-572-205-84-427 163-427 447"/>
    <path class="fil13" d="m13088 8480c-25 153-26 365-37 525-1 16-1 37-2 60 24 11 41 35 41 64v6c20 11 74 9 94 8 94-5 179-20 272-27-1-197-9-396-33-592-15-121-126-844-346-460-62 110-86 222-93 337 16-9 35-12 54-7 37 10 60 48 50 86zm-99 752c-47 22-91-11-104-64-25-99-36-465-41-578-11-219 9-453 138-639 129-184 310-192 430 8 162 269 183 858 185 1179 1 132-39 109-151 118-120 10-363 70-457-24z"/>
   <path class="fil1" d="m13020 8462c-36 133-45 1482-109 60-31-672 616-1255 616 660-226 0-507 100-507-53"/>
    <path class="fil13" d="m13178 7571c-90 2-112 22-76 114 16 42 93 149 134 140 34-8 36-174 36-196v2c-6-17-26-48-49-75-13 10-28 15-45 15zm-226 1c-4-14-3-30 3-44l26-54c122-204 340-80 415 90 34 75 15 240-24 313-137 250-474-83-420-305z"/>
   <path class="fil1" d="m13180 7501c-452-15 181 801 162 126-2-72-214-340-322-73"/>
    <path class="fil14" d="m13884 8195c0-95-1-270-7-450-68-182-111-417-83-571 15-77 88-114 139-59 54 59 76 342 85 607 3 7 5 13 8 19 61 139 178 295 338 323 6 1 20 3 28 1 20-36-12-140-46-230-35 10-72-9-85-45-12-52-16-57-14-112 4-146 75-283 207-353 445-233 516 635 217 704-50 12-95 1-136-24 7 123-43 223-195 197-125-21-234-100-316-198v191c0 38-31 70-70 70s-70-32-70-70zm514-587c5 5 11 11 15 19 22 34 178 328 245 252 81-92 80-508-105-444-81 28-134 95-155 173z"/>
   <path class="fil1" d="m13954 8195c0-2122-365-368 323-85 464 191-97-739 129-360 437 734 545-692 35-334-102 71-148 252-113 352"/>
    <path class="fil14" d="m15032 7266c-29 2-56 30-85 91s-71 235-25 290c11 13 64-23 110-64-8-77-26-226 0-317zm164 509c22 160 47 319 54 419 11 158 25 590-201 605-183 12-254-261-257-406-6-240 90-451 233-632-17 9-33 17-47 21-307 88-261-531-18-640 130-59 228 36 305 130 23 31 16 75-15 98-2 2-4 3-6 5 11 63 10 128-4 170-5 14-14 29-25 46 16 1 32 8 44 21 27 28 26 73-2 99-21 21-41 43-61 64zm-118 150c-69 104-119 217-138 347-16 105-9 322 88 383 31 19 55-59 59-74 51-161 23-421-9-656z"/>
   <path class="fil1" d="m15209 7314c-382-519-588 868-51 238 108-127-188-776-7 396 230 1492-800 533 58-287"/>
    <path class="fil14" d="m15352 7147c7-55 5-163 92-152 73 9 65 91 65 144 2 82-2 231 4 346 3 0 5 0 7 1 37 10 60 48 50 85-16 57-45 160-130 125-73-30-65-178-67-241-3-78-1-168-1-253-14-14-22-34-20-55z"/>
   <path class="fil1" d="m15422 7154c42-418-19 787 80 400"/>
    <path class="fil14" d="m15732 7011c23-15 50-21 83-15 144 25 210 312 264 417 40 77 68 64 128 4 65-65 123-164 168-244 19-34 62-46 96-27 34 18 46 61 27 95-76 135-273 479-469 332-108-83-148-346-230-429-34 59-49 181-62 242-15 74-95 87-131 34-24-36-14-330-14-400 0-39 32-70 70-70 36 0 66 27 70 61z"/>
   <path class="fil1" d="m15662 7020c0 1046-19-611 330 367 126 354 349-8 445-180"/>
    <path class="fil14" d="m15049 6576h427c38 0 70 32 70 70 0 39-32 71-70 71h-427c-39 0-71-32-71-71 0-38 32-70 71-70z"/>
   <path class="fil1" d="m15049 6646h427"/>
</svg>
